M48
; DRILL file KiCad 10.0.1 date 2026-05-25T07:31:29
; FORMAT={-:-/ absolute / metric / decimal}
; #@! TF.CreationDate,2026-05-25T07:31:29+02:00
; #@! TF.GenerationSoftware,Kicad,Pcbnew,10.0.1
; #@! TF.FileFunction,Plated,1,2,PTH
FMAT,2
METRIC
; #@! TA.AperFunction,Plated,PTH,ViaDrill
T1C0.300
; #@! TA.AperFunction,Plated,PTH,ComponentDrill
T2C0.500
; #@! TA.AperFunction,Plated,PTH,ComponentDrill
T3C1.000
%
G90
G05
T1
X148.375Y-113.0
X149.707Y-92.808
X149.825Y-78.5
X152.61Y-92.61
X152.864Y-90.703
X153.6Y-71.275
X154.775Y-93.6
X155.8Y-101.915
X155.843Y-99.807
X156.475Y-71.95
X157.7Y-91.75
X159.675Y-114.1
X159.75Y-79.65
X160.3Y-121.4
X160.6Y-101.665
X160.9Y-115.3
X161.0Y-100.2
X161.713Y-108.487
X162.05Y-77.3
X162.05Y-81.95
X163.8Y-99.4
X164.3Y-79.66
X165.5Y-94.85
X166.078Y-103.203
X166.25Y-99.3
X167.64Y-101.64
X169.487Y-100.712
X170.75Y-74.5
X172.75Y-90.25
X173.475Y-71.94
X173.575Y-88.45
X173.8Y-75.75
X173.825Y-77.675
X175.45Y-82.675
X175.45Y-113.95
X177.0Y-74.875
X177.0Y-109.6
X178.825Y-85.95
T2
X148.35Y-119.7
T3
X172.825Y-101.615
X172.825Y-105.115
X175.225Y-89.355
X175.225Y-91.895
X175.225Y-94.435
X175.225Y-96.975
X179.825Y-101.615
X179.825Y-105.115
T2
G00X172.71Y-114.85
M15
G01X172.71Y-115.55
M16
G05
G00X172.71Y-118.65
M15
G01X172.71Y-119.35
M16
G05
G00X181.35Y-114.85
M15
G01X181.35Y-115.55
M16
G05
G00X181.35Y-118.65
M15
G01X181.35Y-119.35
M16
G05
M30
