%TF.GenerationSoftware,KiCad,Pcbnew,10.0.1*%
%TF.CreationDate,2026-05-25T07:24:00+02:00*%
%TF.ProjectId,ClearBell_Inneneinheit,436c6561-7242-4656-9c6c-5f496e6e656e,rev?*%
%TF.SameCoordinates,Original*%
%TF.FileFunction,Legend,Top*%
%TF.FilePolarity,Positive*%
%FSLAX46Y46*%
G04 Gerber Fmt 4.6, Leading zero omitted, Abs format (unit mm)*
G04 Created by KiCad (PCBNEW 10.0.1) date 2026-05-25 07:24:00*
%MOMM*%
%LPD*%
G01*
G04 APERTURE LIST*
%ADD10C,0.080000*%
%ADD11C,0.150000*%
%ADD12C,0.120000*%
%ADD13C,0.152400*%
%ADD14C,0.508000*%
%ADD15C,0.127000*%
%ADD16C,0.200000*%
%ADD17C,0.100000*%
G04 APERTURE END LIST*
D10*
X163776190Y-97389744D02*
X163757142Y-97427840D01*
X163757142Y-97427840D02*
X163700000Y-97465935D01*
X163700000Y-97465935D02*
X163661904Y-97465935D01*
X163661904Y-97465935D02*
X163604761Y-97427840D01*
X163604761Y-97427840D02*
X163566666Y-97351649D01*
X163566666Y-97351649D02*
X163547619Y-97275459D01*
X163547619Y-97275459D02*
X163528571Y-97123078D01*
X163528571Y-97123078D02*
X163528571Y-97008792D01*
X163528571Y-97008792D02*
X163547619Y-96856411D01*
X163547619Y-96856411D02*
X163566666Y-96780220D01*
X163566666Y-96780220D02*
X163604761Y-96704030D01*
X163604761Y-96704030D02*
X163661904Y-96665935D01*
X163661904Y-96665935D02*
X163700000Y-96665935D01*
X163700000Y-96665935D02*
X163757142Y-96704030D01*
X163757142Y-96704030D02*
X163776190Y-96742125D01*
X163852381Y-97542125D02*
X164157142Y-97542125D01*
X164252381Y-97465935D02*
X164252381Y-96665935D01*
X164442857Y-97465935D02*
X164442857Y-96665935D01*
X164442857Y-96665935D02*
X164671428Y-97465935D01*
X164671428Y-97465935D02*
X164671428Y-96665935D01*
X165071428Y-97465935D02*
X164842857Y-97465935D01*
X164957143Y-97465935D02*
X164957143Y-96665935D01*
X164957143Y-96665935D02*
X164919047Y-96780220D01*
X164919047Y-96780220D02*
X164880952Y-96856411D01*
X164880952Y-96856411D02*
X164842857Y-96894506D01*
X147733333Y-99239744D02*
X147714285Y-99277840D01*
X147714285Y-99277840D02*
X147657143Y-99315935D01*
X147657143Y-99315935D02*
X147619047Y-99315935D01*
X147619047Y-99315935D02*
X147561904Y-99277840D01*
X147561904Y-99277840D02*
X147523809Y-99201649D01*
X147523809Y-99201649D02*
X147504762Y-99125459D01*
X147504762Y-99125459D02*
X147485714Y-98973078D01*
X147485714Y-98973078D02*
X147485714Y-98858792D01*
X147485714Y-98858792D02*
X147504762Y-98706411D01*
X147504762Y-98706411D02*
X147523809Y-98630220D01*
X147523809Y-98630220D02*
X147561904Y-98554030D01*
X147561904Y-98554030D02*
X147619047Y-98515935D01*
X147619047Y-98515935D02*
X147657143Y-98515935D01*
X147657143Y-98515935D02*
X147714285Y-98554030D01*
X147714285Y-98554030D02*
X147733333Y-98592125D01*
X147809524Y-99392125D02*
X148114285Y-99392125D01*
X148342857Y-98896887D02*
X148400000Y-98934982D01*
X148400000Y-98934982D02*
X148419047Y-98973078D01*
X148419047Y-98973078D02*
X148438095Y-99049268D01*
X148438095Y-99049268D02*
X148438095Y-99163554D01*
X148438095Y-99163554D02*
X148419047Y-99239744D01*
X148419047Y-99239744D02*
X148400000Y-99277840D01*
X148400000Y-99277840D02*
X148361905Y-99315935D01*
X148361905Y-99315935D02*
X148209524Y-99315935D01*
X148209524Y-99315935D02*
X148209524Y-98515935D01*
X148209524Y-98515935D02*
X148342857Y-98515935D01*
X148342857Y-98515935D02*
X148380952Y-98554030D01*
X148380952Y-98554030D02*
X148400000Y-98592125D01*
X148400000Y-98592125D02*
X148419047Y-98668316D01*
X148419047Y-98668316D02*
X148419047Y-98744506D01*
X148419047Y-98744506D02*
X148400000Y-98820697D01*
X148400000Y-98820697D02*
X148380952Y-98858792D01*
X148380952Y-98858792D02*
X148342857Y-98896887D01*
X148342857Y-98896887D02*
X148209524Y-98896887D01*
X148780952Y-98782601D02*
X148780952Y-99315935D01*
X148609524Y-98782601D02*
X148609524Y-99201649D01*
X148609524Y-99201649D02*
X148628571Y-99277840D01*
X148628571Y-99277840D02*
X148666666Y-99315935D01*
X148666666Y-99315935D02*
X148723809Y-99315935D01*
X148723809Y-99315935D02*
X148761905Y-99277840D01*
X148761905Y-99277840D02*
X148780952Y-99239744D01*
X149028571Y-99315935D02*
X148990476Y-99277840D01*
X148990476Y-99277840D02*
X148971429Y-99201649D01*
X148971429Y-99201649D02*
X148971429Y-98515935D01*
X149180953Y-99315935D02*
X149180953Y-98515935D01*
X149219048Y-99011173D02*
X149333334Y-99315935D01*
X149333334Y-98782601D02*
X149180953Y-99087363D01*
X149714286Y-99315935D02*
X149485715Y-99315935D01*
X149600001Y-99315935D02*
X149600001Y-98515935D01*
X149600001Y-98515935D02*
X149561905Y-98630220D01*
X149561905Y-98630220D02*
X149523810Y-98706411D01*
X149523810Y-98706411D02*
X149485715Y-98744506D01*
D11*
X180534523Y-107922342D02*
X180534523Y-108779485D01*
X180534523Y-108779485D02*
X180486904Y-108950914D01*
X180486904Y-108950914D02*
X180391666Y-109065200D01*
X180391666Y-109065200D02*
X180248809Y-109122342D01*
X180248809Y-109122342D02*
X180153571Y-109122342D01*
X180772619Y-109236628D02*
X181534523Y-109236628D01*
X181725000Y-109065200D02*
X181867857Y-109122342D01*
X181867857Y-109122342D02*
X182105952Y-109122342D01*
X182105952Y-109122342D02*
X182201190Y-109065200D01*
X182201190Y-109065200D02*
X182248809Y-109008057D01*
X182248809Y-109008057D02*
X182296428Y-108893771D01*
X182296428Y-108893771D02*
X182296428Y-108779485D01*
X182296428Y-108779485D02*
X182248809Y-108665200D01*
X182248809Y-108665200D02*
X182201190Y-108608057D01*
X182201190Y-108608057D02*
X182105952Y-108550914D01*
X182105952Y-108550914D02*
X181915476Y-108493771D01*
X181915476Y-108493771D02*
X181820238Y-108436628D01*
X181820238Y-108436628D02*
X181772619Y-108379485D01*
X181772619Y-108379485D02*
X181725000Y-108265200D01*
X181725000Y-108265200D02*
X181725000Y-108150914D01*
X181725000Y-108150914D02*
X181772619Y-108036628D01*
X181772619Y-108036628D02*
X181820238Y-107979485D01*
X181820238Y-107979485D02*
X181915476Y-107922342D01*
X181915476Y-107922342D02*
X182153571Y-107922342D01*
X182153571Y-107922342D02*
X182296428Y-107979485D01*
X182725000Y-109122342D02*
X182725000Y-107922342D01*
X182725000Y-107922342D02*
X183105952Y-107922342D01*
X183105952Y-107922342D02*
X183201190Y-107979485D01*
X183201190Y-107979485D02*
X183248809Y-108036628D01*
X183248809Y-108036628D02*
X183296428Y-108150914D01*
X183296428Y-108150914D02*
X183296428Y-108322342D01*
X183296428Y-108322342D02*
X183248809Y-108436628D01*
X183248809Y-108436628D02*
X183201190Y-108493771D01*
X183201190Y-108493771D02*
X183105952Y-108550914D01*
X183105952Y-108550914D02*
X182725000Y-108550914D01*
X183725000Y-109122342D02*
X183725000Y-107922342D01*
X184296428Y-109122342D02*
X183867857Y-108436628D01*
X184296428Y-107922342D02*
X183725000Y-108608057D01*
X185248809Y-109122342D02*
X184677381Y-109122342D01*
X184963095Y-109122342D02*
X184963095Y-107922342D01*
X184963095Y-107922342D02*
X184867857Y-108093771D01*
X184867857Y-108093771D02*
X184772619Y-108208057D01*
X184772619Y-108208057D02*
X184677381Y-108265200D01*
D10*
X156039744Y-92449999D02*
X156077840Y-92469047D01*
X156077840Y-92469047D02*
X156115935Y-92526189D01*
X156115935Y-92526189D02*
X156115935Y-92564285D01*
X156115935Y-92564285D02*
X156077840Y-92621428D01*
X156077840Y-92621428D02*
X156001649Y-92659523D01*
X156001649Y-92659523D02*
X155925459Y-92678570D01*
X155925459Y-92678570D02*
X155773078Y-92697618D01*
X155773078Y-92697618D02*
X155658792Y-92697618D01*
X155658792Y-92697618D02*
X155506411Y-92678570D01*
X155506411Y-92678570D02*
X155430220Y-92659523D01*
X155430220Y-92659523D02*
X155354030Y-92621428D01*
X155354030Y-92621428D02*
X155315935Y-92564285D01*
X155315935Y-92564285D02*
X155315935Y-92526189D01*
X155315935Y-92526189D02*
X155354030Y-92469047D01*
X155354030Y-92469047D02*
X155392125Y-92449999D01*
X156192125Y-92373809D02*
X156192125Y-92069047D01*
X156115935Y-91973808D02*
X155315935Y-91973808D01*
X155696887Y-91973808D02*
X155696887Y-91745237D01*
X156115935Y-91745237D02*
X155315935Y-91745237D01*
X155696887Y-91421427D02*
X155696887Y-91554760D01*
X156115935Y-91554760D02*
X155315935Y-91554760D01*
X155315935Y-91554760D02*
X155315935Y-91364284D01*
X155392125Y-91230951D02*
X155354030Y-91211903D01*
X155354030Y-91211903D02*
X155315935Y-91173808D01*
X155315935Y-91173808D02*
X155315935Y-91078570D01*
X155315935Y-91078570D02*
X155354030Y-91040475D01*
X155354030Y-91040475D02*
X155392125Y-91021427D01*
X155392125Y-91021427D02*
X155468316Y-91002380D01*
X155468316Y-91002380D02*
X155544506Y-91002380D01*
X155544506Y-91002380D02*
X155658792Y-91021427D01*
X155658792Y-91021427D02*
X156115935Y-91249999D01*
X156115935Y-91249999D02*
X156115935Y-91002380D01*
X159945238Y-103265935D02*
X159945238Y-103913554D01*
X159945238Y-103913554D02*
X159964285Y-103989744D01*
X159964285Y-103989744D02*
X159983333Y-104027840D01*
X159983333Y-104027840D02*
X160021428Y-104065935D01*
X160021428Y-104065935D02*
X160097619Y-104065935D01*
X160097619Y-104065935D02*
X160135714Y-104027840D01*
X160135714Y-104027840D02*
X160154761Y-103989744D01*
X160154761Y-103989744D02*
X160173809Y-103913554D01*
X160173809Y-103913554D02*
X160173809Y-103265935D01*
X160326190Y-103265935D02*
X160573809Y-103265935D01*
X160573809Y-103265935D02*
X160440476Y-103570697D01*
X160440476Y-103570697D02*
X160497619Y-103570697D01*
X160497619Y-103570697D02*
X160535714Y-103608792D01*
X160535714Y-103608792D02*
X160554762Y-103646887D01*
X160554762Y-103646887D02*
X160573809Y-103723078D01*
X160573809Y-103723078D02*
X160573809Y-103913554D01*
X160573809Y-103913554D02*
X160554762Y-103989744D01*
X160554762Y-103989744D02*
X160535714Y-104027840D01*
X160535714Y-104027840D02*
X160497619Y-104065935D01*
X160497619Y-104065935D02*
X160383333Y-104065935D01*
X160383333Y-104065935D02*
X160345238Y-104027840D01*
X160345238Y-104027840D02*
X160326190Y-103989744D01*
X170876190Y-92665935D02*
X170742857Y-92284982D01*
X170647619Y-92665935D02*
X170647619Y-91865935D01*
X170647619Y-91865935D02*
X170800000Y-91865935D01*
X170800000Y-91865935D02*
X170838095Y-91904030D01*
X170838095Y-91904030D02*
X170857142Y-91942125D01*
X170857142Y-91942125D02*
X170876190Y-92018316D01*
X170876190Y-92018316D02*
X170876190Y-92132601D01*
X170876190Y-92132601D02*
X170857142Y-92208792D01*
X170857142Y-92208792D02*
X170838095Y-92246887D01*
X170838095Y-92246887D02*
X170800000Y-92284982D01*
X170800000Y-92284982D02*
X170647619Y-92284982D01*
X170952381Y-92742125D02*
X171257142Y-92742125D01*
X171561904Y-91904030D02*
X171523809Y-91865935D01*
X171523809Y-91865935D02*
X171466666Y-91865935D01*
X171466666Y-91865935D02*
X171409523Y-91904030D01*
X171409523Y-91904030D02*
X171371428Y-91980220D01*
X171371428Y-91980220D02*
X171352381Y-92056411D01*
X171352381Y-92056411D02*
X171333333Y-92208792D01*
X171333333Y-92208792D02*
X171333333Y-92323078D01*
X171333333Y-92323078D02*
X171352381Y-92475459D01*
X171352381Y-92475459D02*
X171371428Y-92551649D01*
X171371428Y-92551649D02*
X171409523Y-92627840D01*
X171409523Y-92627840D02*
X171466666Y-92665935D01*
X171466666Y-92665935D02*
X171504762Y-92665935D01*
X171504762Y-92665935D02*
X171561904Y-92627840D01*
X171561904Y-92627840D02*
X171580952Y-92589744D01*
X171580952Y-92589744D02*
X171580952Y-92323078D01*
X171580952Y-92323078D02*
X171504762Y-92323078D01*
X171752381Y-92665935D02*
X171752381Y-91865935D01*
X171752381Y-91865935D02*
X171904762Y-91865935D01*
X171904762Y-91865935D02*
X171942857Y-91904030D01*
X171942857Y-91904030D02*
X171961904Y-91942125D01*
X171961904Y-91942125D02*
X171980952Y-92018316D01*
X171980952Y-92018316D02*
X171980952Y-92132601D01*
X171980952Y-92132601D02*
X171961904Y-92208792D01*
X171961904Y-92208792D02*
X171942857Y-92246887D01*
X171942857Y-92246887D02*
X171904762Y-92284982D01*
X171904762Y-92284982D02*
X171752381Y-92284982D01*
X172152381Y-92665935D02*
X172152381Y-91865935D01*
X172419047Y-91865935D02*
X172495238Y-91865935D01*
X172495238Y-91865935D02*
X172533333Y-91904030D01*
X172533333Y-91904030D02*
X172571428Y-91980220D01*
X172571428Y-91980220D02*
X172590476Y-92132601D01*
X172590476Y-92132601D02*
X172590476Y-92399268D01*
X172590476Y-92399268D02*
X172571428Y-92551649D01*
X172571428Y-92551649D02*
X172533333Y-92627840D01*
X172533333Y-92627840D02*
X172495238Y-92665935D01*
X172495238Y-92665935D02*
X172419047Y-92665935D01*
X172419047Y-92665935D02*
X172380952Y-92627840D01*
X172380952Y-92627840D02*
X172342857Y-92551649D01*
X172342857Y-92551649D02*
X172323809Y-92399268D01*
X172323809Y-92399268D02*
X172323809Y-92132601D01*
X172323809Y-92132601D02*
X172342857Y-91980220D01*
X172342857Y-91980220D02*
X172380952Y-91904030D01*
X172380952Y-91904030D02*
X172419047Y-91865935D01*
X172742857Y-91942125D02*
X172761905Y-91904030D01*
X172761905Y-91904030D02*
X172800000Y-91865935D01*
X172800000Y-91865935D02*
X172895238Y-91865935D01*
X172895238Y-91865935D02*
X172933333Y-91904030D01*
X172933333Y-91904030D02*
X172952381Y-91942125D01*
X172952381Y-91942125D02*
X172971428Y-92018316D01*
X172971428Y-92018316D02*
X172971428Y-92094506D01*
X172971428Y-92094506D02*
X172952381Y-92208792D01*
X172952381Y-92208792D02*
X172723809Y-92665935D01*
X172723809Y-92665935D02*
X172971428Y-92665935D01*
D11*
X154140200Y-121721428D02*
X154197342Y-121578571D01*
X154197342Y-121578571D02*
X154197342Y-121340476D01*
X154197342Y-121340476D02*
X154140200Y-121245238D01*
X154140200Y-121245238D02*
X154083057Y-121197619D01*
X154083057Y-121197619D02*
X153968771Y-121150000D01*
X153968771Y-121150000D02*
X153854485Y-121150000D01*
X153854485Y-121150000D02*
X153740200Y-121197619D01*
X153740200Y-121197619D02*
X153683057Y-121245238D01*
X153683057Y-121245238D02*
X153625914Y-121340476D01*
X153625914Y-121340476D02*
X153568771Y-121530952D01*
X153568771Y-121530952D02*
X153511628Y-121626190D01*
X153511628Y-121626190D02*
X153454485Y-121673809D01*
X153454485Y-121673809D02*
X153340200Y-121721428D01*
X153340200Y-121721428D02*
X153225914Y-121721428D01*
X153225914Y-121721428D02*
X153111628Y-121673809D01*
X153111628Y-121673809D02*
X153054485Y-121626190D01*
X153054485Y-121626190D02*
X152997342Y-121530952D01*
X152997342Y-121530952D02*
X152997342Y-121292857D01*
X152997342Y-121292857D02*
X153054485Y-121150000D01*
X154311628Y-120959524D02*
X154311628Y-120197619D01*
X153568771Y-119626190D02*
X153625914Y-119483333D01*
X153625914Y-119483333D02*
X153683057Y-119435714D01*
X153683057Y-119435714D02*
X153797342Y-119388095D01*
X153797342Y-119388095D02*
X153968771Y-119388095D01*
X153968771Y-119388095D02*
X154083057Y-119435714D01*
X154083057Y-119435714D02*
X154140200Y-119483333D01*
X154140200Y-119483333D02*
X154197342Y-119578571D01*
X154197342Y-119578571D02*
X154197342Y-119959523D01*
X154197342Y-119959523D02*
X152997342Y-119959523D01*
X152997342Y-119959523D02*
X152997342Y-119626190D01*
X152997342Y-119626190D02*
X153054485Y-119530952D01*
X153054485Y-119530952D02*
X153111628Y-119483333D01*
X153111628Y-119483333D02*
X153225914Y-119435714D01*
X153225914Y-119435714D02*
X153340200Y-119435714D01*
X153340200Y-119435714D02*
X153454485Y-119483333D01*
X153454485Y-119483333D02*
X153511628Y-119530952D01*
X153511628Y-119530952D02*
X153568771Y-119626190D01*
X153568771Y-119626190D02*
X153568771Y-119959523D01*
X152997342Y-118769047D02*
X152997342Y-118578571D01*
X152997342Y-118578571D02*
X153054485Y-118483333D01*
X153054485Y-118483333D02*
X153168771Y-118388095D01*
X153168771Y-118388095D02*
X153397342Y-118340476D01*
X153397342Y-118340476D02*
X153797342Y-118340476D01*
X153797342Y-118340476D02*
X154025914Y-118388095D01*
X154025914Y-118388095D02*
X154140200Y-118483333D01*
X154140200Y-118483333D02*
X154197342Y-118578571D01*
X154197342Y-118578571D02*
X154197342Y-118769047D01*
X154197342Y-118769047D02*
X154140200Y-118864285D01*
X154140200Y-118864285D02*
X154025914Y-118959523D01*
X154025914Y-118959523D02*
X153797342Y-119007142D01*
X153797342Y-119007142D02*
X153397342Y-119007142D01*
X153397342Y-119007142D02*
X153168771Y-118959523D01*
X153168771Y-118959523D02*
X153054485Y-118864285D01*
X153054485Y-118864285D02*
X152997342Y-118769047D01*
X152997342Y-117721428D02*
X152997342Y-117530952D01*
X152997342Y-117530952D02*
X153054485Y-117435714D01*
X153054485Y-117435714D02*
X153168771Y-117340476D01*
X153168771Y-117340476D02*
X153397342Y-117292857D01*
X153397342Y-117292857D02*
X153797342Y-117292857D01*
X153797342Y-117292857D02*
X154025914Y-117340476D01*
X154025914Y-117340476D02*
X154140200Y-117435714D01*
X154140200Y-117435714D02*
X154197342Y-117530952D01*
X154197342Y-117530952D02*
X154197342Y-117721428D01*
X154197342Y-117721428D02*
X154140200Y-117816666D01*
X154140200Y-117816666D02*
X154025914Y-117911904D01*
X154025914Y-117911904D02*
X153797342Y-117959523D01*
X153797342Y-117959523D02*
X153397342Y-117959523D01*
X153397342Y-117959523D02*
X153168771Y-117911904D01*
X153168771Y-117911904D02*
X153054485Y-117816666D01*
X153054485Y-117816666D02*
X152997342Y-117721428D01*
X152997342Y-117007142D02*
X152997342Y-116435714D01*
X154197342Y-116721428D02*
X152997342Y-116721428D01*
X154197342Y-115578571D02*
X154197342Y-116149999D01*
X154197342Y-115864285D02*
X152997342Y-115864285D01*
X152997342Y-115864285D02*
X153168771Y-115959523D01*
X153168771Y-115959523D02*
X153283057Y-116054761D01*
X153283057Y-116054761D02*
X153340200Y-116149999D01*
D10*
X174439744Y-82509523D02*
X174477840Y-82528571D01*
X174477840Y-82528571D02*
X174515935Y-82585713D01*
X174515935Y-82585713D02*
X174515935Y-82623809D01*
X174515935Y-82623809D02*
X174477840Y-82680952D01*
X174477840Y-82680952D02*
X174401649Y-82719047D01*
X174401649Y-82719047D02*
X174325459Y-82738094D01*
X174325459Y-82738094D02*
X174173078Y-82757142D01*
X174173078Y-82757142D02*
X174058792Y-82757142D01*
X174058792Y-82757142D02*
X173906411Y-82738094D01*
X173906411Y-82738094D02*
X173830220Y-82719047D01*
X173830220Y-82719047D02*
X173754030Y-82680952D01*
X173754030Y-82680952D02*
X173715935Y-82623809D01*
X173715935Y-82623809D02*
X173715935Y-82585713D01*
X173715935Y-82585713D02*
X173754030Y-82528571D01*
X173754030Y-82528571D02*
X173792125Y-82509523D01*
X174592125Y-82433333D02*
X174592125Y-82128571D01*
X174477840Y-82052380D02*
X174515935Y-81995237D01*
X174515935Y-81995237D02*
X174515935Y-81899999D01*
X174515935Y-81899999D02*
X174477840Y-81861904D01*
X174477840Y-81861904D02*
X174439744Y-81842856D01*
X174439744Y-81842856D02*
X174363554Y-81823809D01*
X174363554Y-81823809D02*
X174287363Y-81823809D01*
X174287363Y-81823809D02*
X174211173Y-81842856D01*
X174211173Y-81842856D02*
X174173078Y-81861904D01*
X174173078Y-81861904D02*
X174134982Y-81899999D01*
X174134982Y-81899999D02*
X174096887Y-81976190D01*
X174096887Y-81976190D02*
X174058792Y-82014285D01*
X174058792Y-82014285D02*
X174020697Y-82033332D01*
X174020697Y-82033332D02*
X173944506Y-82052380D01*
X173944506Y-82052380D02*
X173868316Y-82052380D01*
X173868316Y-82052380D02*
X173792125Y-82033332D01*
X173792125Y-82033332D02*
X173754030Y-82014285D01*
X173754030Y-82014285D02*
X173715935Y-81976190D01*
X173715935Y-81976190D02*
X173715935Y-81880951D01*
X173715935Y-81880951D02*
X173754030Y-81823809D01*
X174515935Y-81652380D02*
X173715935Y-81652380D01*
X173715935Y-81652380D02*
X173715935Y-81557142D01*
X173715935Y-81557142D02*
X173754030Y-81499999D01*
X173754030Y-81499999D02*
X173830220Y-81461904D01*
X173830220Y-81461904D02*
X173906411Y-81442857D01*
X173906411Y-81442857D02*
X174058792Y-81423809D01*
X174058792Y-81423809D02*
X174173078Y-81423809D01*
X174173078Y-81423809D02*
X174325459Y-81442857D01*
X174325459Y-81442857D02*
X174401649Y-81461904D01*
X174401649Y-81461904D02*
X174477840Y-81499999D01*
X174477840Y-81499999D02*
X174515935Y-81557142D01*
X174515935Y-81557142D02*
X174515935Y-81652380D01*
X174515935Y-81042857D02*
X174515935Y-81271428D01*
X174515935Y-81157142D02*
X173715935Y-81157142D01*
X173715935Y-81157142D02*
X173830220Y-81195238D01*
X173830220Y-81195238D02*
X173906411Y-81233333D01*
X173906411Y-81233333D02*
X173944506Y-81271428D01*
X175115935Y-112269047D02*
X174734982Y-112402380D01*
X175115935Y-112497618D02*
X174315935Y-112497618D01*
X174315935Y-112497618D02*
X174315935Y-112345237D01*
X174315935Y-112345237D02*
X174354030Y-112307142D01*
X174354030Y-112307142D02*
X174392125Y-112288095D01*
X174392125Y-112288095D02*
X174468316Y-112269047D01*
X174468316Y-112269047D02*
X174582601Y-112269047D01*
X174582601Y-112269047D02*
X174658792Y-112288095D01*
X174658792Y-112288095D02*
X174696887Y-112307142D01*
X174696887Y-112307142D02*
X174734982Y-112345237D01*
X174734982Y-112345237D02*
X174734982Y-112497618D01*
X175192125Y-112192857D02*
X175192125Y-111888095D01*
X175039744Y-111564285D02*
X175077840Y-111583333D01*
X175077840Y-111583333D02*
X175115935Y-111640475D01*
X175115935Y-111640475D02*
X175115935Y-111678571D01*
X175115935Y-111678571D02*
X175077840Y-111735714D01*
X175077840Y-111735714D02*
X175001649Y-111773809D01*
X175001649Y-111773809D02*
X174925459Y-111792856D01*
X174925459Y-111792856D02*
X174773078Y-111811904D01*
X174773078Y-111811904D02*
X174658792Y-111811904D01*
X174658792Y-111811904D02*
X174506411Y-111792856D01*
X174506411Y-111792856D02*
X174430220Y-111773809D01*
X174430220Y-111773809D02*
X174354030Y-111735714D01*
X174354030Y-111735714D02*
X174315935Y-111678571D01*
X174315935Y-111678571D02*
X174315935Y-111640475D01*
X174315935Y-111640475D02*
X174354030Y-111583333D01*
X174354030Y-111583333D02*
X174392125Y-111564285D01*
X175039744Y-111164285D02*
X175077840Y-111183333D01*
X175077840Y-111183333D02*
X175115935Y-111240475D01*
X175115935Y-111240475D02*
X175115935Y-111278571D01*
X175115935Y-111278571D02*
X175077840Y-111335714D01*
X175077840Y-111335714D02*
X175001649Y-111373809D01*
X175001649Y-111373809D02*
X174925459Y-111392856D01*
X174925459Y-111392856D02*
X174773078Y-111411904D01*
X174773078Y-111411904D02*
X174658792Y-111411904D01*
X174658792Y-111411904D02*
X174506411Y-111392856D01*
X174506411Y-111392856D02*
X174430220Y-111373809D01*
X174430220Y-111373809D02*
X174354030Y-111335714D01*
X174354030Y-111335714D02*
X174315935Y-111278571D01*
X174315935Y-111278571D02*
X174315935Y-111240475D01*
X174315935Y-111240475D02*
X174354030Y-111183333D01*
X174354030Y-111183333D02*
X174392125Y-111164285D01*
X175115935Y-110783333D02*
X175115935Y-111011904D01*
X175115935Y-110897618D02*
X174315935Y-110897618D01*
X174315935Y-110897618D02*
X174430220Y-110935714D01*
X174430220Y-110935714D02*
X174506411Y-110973809D01*
X174506411Y-110973809D02*
X174544506Y-111011904D01*
D11*
X181816666Y-85447342D02*
X181816666Y-86304485D01*
X181816666Y-86304485D02*
X181769047Y-86475914D01*
X181769047Y-86475914D02*
X181673809Y-86590200D01*
X181673809Y-86590200D02*
X181530952Y-86647342D01*
X181530952Y-86647342D02*
X181435714Y-86647342D01*
X182197619Y-85447342D02*
X182816666Y-85447342D01*
X182816666Y-85447342D02*
X182483333Y-85904485D01*
X182483333Y-85904485D02*
X182626190Y-85904485D01*
X182626190Y-85904485D02*
X182721428Y-85961628D01*
X182721428Y-85961628D02*
X182769047Y-86018771D01*
X182769047Y-86018771D02*
X182816666Y-86133057D01*
X182816666Y-86133057D02*
X182816666Y-86418771D01*
X182816666Y-86418771D02*
X182769047Y-86533057D01*
X182769047Y-86533057D02*
X182721428Y-86590200D01*
X182721428Y-86590200D02*
X182626190Y-86647342D01*
X182626190Y-86647342D02*
X182340476Y-86647342D01*
X182340476Y-86647342D02*
X182245238Y-86590200D01*
X182245238Y-86590200D02*
X182197619Y-86533057D01*
D10*
X152739744Y-71290475D02*
X152777840Y-71309523D01*
X152777840Y-71309523D02*
X152815935Y-71366665D01*
X152815935Y-71366665D02*
X152815935Y-71404761D01*
X152815935Y-71404761D02*
X152777840Y-71461904D01*
X152777840Y-71461904D02*
X152701649Y-71499999D01*
X152701649Y-71499999D02*
X152625459Y-71519046D01*
X152625459Y-71519046D02*
X152473078Y-71538094D01*
X152473078Y-71538094D02*
X152358792Y-71538094D01*
X152358792Y-71538094D02*
X152206411Y-71519046D01*
X152206411Y-71519046D02*
X152130220Y-71499999D01*
X152130220Y-71499999D02*
X152054030Y-71461904D01*
X152054030Y-71461904D02*
X152015935Y-71404761D01*
X152015935Y-71404761D02*
X152015935Y-71366665D01*
X152015935Y-71366665D02*
X152054030Y-71309523D01*
X152054030Y-71309523D02*
X152092125Y-71290475D01*
X152892125Y-71214285D02*
X152892125Y-70909523D01*
X152015935Y-70871427D02*
X152815935Y-70738094D01*
X152815935Y-70738094D02*
X152015935Y-70604761D01*
X152815935Y-70471427D02*
X152015935Y-70471427D01*
X152015935Y-70471427D02*
X152015935Y-70376189D01*
X152015935Y-70376189D02*
X152054030Y-70319046D01*
X152054030Y-70319046D02*
X152130220Y-70280951D01*
X152130220Y-70280951D02*
X152206411Y-70261904D01*
X152206411Y-70261904D02*
X152358792Y-70242856D01*
X152358792Y-70242856D02*
X152473078Y-70242856D01*
X152473078Y-70242856D02*
X152625459Y-70261904D01*
X152625459Y-70261904D02*
X152701649Y-70280951D01*
X152701649Y-70280951D02*
X152777840Y-70319046D01*
X152777840Y-70319046D02*
X152815935Y-70376189D01*
X152815935Y-70376189D02*
X152815935Y-70471427D01*
X152815935Y-70071427D02*
X152015935Y-70071427D01*
X152015935Y-70071427D02*
X152015935Y-69976189D01*
X152015935Y-69976189D02*
X152054030Y-69919046D01*
X152054030Y-69919046D02*
X152130220Y-69880951D01*
X152130220Y-69880951D02*
X152206411Y-69861904D01*
X152206411Y-69861904D02*
X152358792Y-69842856D01*
X152358792Y-69842856D02*
X152473078Y-69842856D01*
X152473078Y-69842856D02*
X152625459Y-69861904D01*
X152625459Y-69861904D02*
X152701649Y-69880951D01*
X152701649Y-69880951D02*
X152777840Y-69919046D01*
X152777840Y-69919046D02*
X152815935Y-69976189D01*
X152815935Y-69976189D02*
X152815935Y-70071427D01*
X152815935Y-69461904D02*
X152815935Y-69690475D01*
X152815935Y-69576189D02*
X152015935Y-69576189D01*
X152015935Y-69576189D02*
X152130220Y-69614285D01*
X152130220Y-69614285D02*
X152206411Y-69652380D01*
X152206411Y-69652380D02*
X152244506Y-69690475D01*
D11*
X171437532Y-120347342D02*
X171437532Y-121204485D01*
X171437532Y-121204485D02*
X171400037Y-121375914D01*
X171400037Y-121375914D02*
X171325046Y-121490200D01*
X171325046Y-121490200D02*
X171212560Y-121547342D01*
X171212560Y-121547342D02*
X171137570Y-121547342D01*
X172224934Y-121547342D02*
X171774990Y-121547342D01*
X171999962Y-121547342D02*
X171999962Y-120347342D01*
X171999962Y-120347342D02*
X171924971Y-120518771D01*
X171924971Y-120518771D02*
X171849981Y-120633057D01*
X171849981Y-120633057D02*
X171774990Y-120690200D01*
X167490200Y-120749999D02*
X167547342Y-120607142D01*
X167547342Y-120607142D02*
X167547342Y-120369047D01*
X167547342Y-120369047D02*
X167490200Y-120273809D01*
X167490200Y-120273809D02*
X167433057Y-120226190D01*
X167433057Y-120226190D02*
X167318771Y-120178571D01*
X167318771Y-120178571D02*
X167204485Y-120178571D01*
X167204485Y-120178571D02*
X167090200Y-120226190D01*
X167090200Y-120226190D02*
X167033057Y-120273809D01*
X167033057Y-120273809D02*
X166975914Y-120369047D01*
X166975914Y-120369047D02*
X166918771Y-120559523D01*
X166918771Y-120559523D02*
X166861628Y-120654761D01*
X166861628Y-120654761D02*
X166804485Y-120702380D01*
X166804485Y-120702380D02*
X166690200Y-120749999D01*
X166690200Y-120749999D02*
X166575914Y-120749999D01*
X166575914Y-120749999D02*
X166461628Y-120702380D01*
X166461628Y-120702380D02*
X166404485Y-120654761D01*
X166404485Y-120654761D02*
X166347342Y-120559523D01*
X166347342Y-120559523D02*
X166347342Y-120321428D01*
X166347342Y-120321428D02*
X166404485Y-120178571D01*
X167661628Y-119988095D02*
X167661628Y-119226190D01*
X167547342Y-118416666D02*
X166975914Y-118749999D01*
X167547342Y-118988094D02*
X166347342Y-118988094D01*
X166347342Y-118988094D02*
X166347342Y-118607142D01*
X166347342Y-118607142D02*
X166404485Y-118511904D01*
X166404485Y-118511904D02*
X166461628Y-118464285D01*
X166461628Y-118464285D02*
X166575914Y-118416666D01*
X166575914Y-118416666D02*
X166747342Y-118416666D01*
X166747342Y-118416666D02*
X166861628Y-118464285D01*
X166861628Y-118464285D02*
X166918771Y-118511904D01*
X166918771Y-118511904D02*
X166975914Y-118607142D01*
X166975914Y-118607142D02*
X166975914Y-118988094D01*
X167490200Y-118035713D02*
X167547342Y-117892856D01*
X167547342Y-117892856D02*
X167547342Y-117654761D01*
X167547342Y-117654761D02*
X167490200Y-117559523D01*
X167490200Y-117559523D02*
X167433057Y-117511904D01*
X167433057Y-117511904D02*
X167318771Y-117464285D01*
X167318771Y-117464285D02*
X167204485Y-117464285D01*
X167204485Y-117464285D02*
X167090200Y-117511904D01*
X167090200Y-117511904D02*
X167033057Y-117559523D01*
X167033057Y-117559523D02*
X166975914Y-117654761D01*
X166975914Y-117654761D02*
X166918771Y-117845237D01*
X166918771Y-117845237D02*
X166861628Y-117940475D01*
X166861628Y-117940475D02*
X166804485Y-117988094D01*
X166804485Y-117988094D02*
X166690200Y-118035713D01*
X166690200Y-118035713D02*
X166575914Y-118035713D01*
X166575914Y-118035713D02*
X166461628Y-117988094D01*
X166461628Y-117988094D02*
X166404485Y-117940475D01*
X166404485Y-117940475D02*
X166347342Y-117845237D01*
X166347342Y-117845237D02*
X166347342Y-117607142D01*
X166347342Y-117607142D02*
X166404485Y-117464285D01*
X166347342Y-117178570D02*
X166347342Y-116607142D01*
X167547342Y-116892856D02*
X166347342Y-116892856D01*
X167547342Y-115749999D02*
X167547342Y-116321427D01*
X167547342Y-116035713D02*
X166347342Y-116035713D01*
X166347342Y-116035713D02*
X166518771Y-116130951D01*
X166518771Y-116130951D02*
X166633057Y-116226189D01*
X166633057Y-116226189D02*
X166690200Y-116321427D01*
D10*
X157707143Y-98715935D02*
X157573810Y-98334982D01*
X157478572Y-98715935D02*
X157478572Y-97915935D01*
X157478572Y-97915935D02*
X157630953Y-97915935D01*
X157630953Y-97915935D02*
X157669048Y-97954030D01*
X157669048Y-97954030D02*
X157688095Y-97992125D01*
X157688095Y-97992125D02*
X157707143Y-98068316D01*
X157707143Y-98068316D02*
X157707143Y-98182601D01*
X157707143Y-98182601D02*
X157688095Y-98258792D01*
X157688095Y-98258792D02*
X157669048Y-98296887D01*
X157669048Y-98296887D02*
X157630953Y-98334982D01*
X157630953Y-98334982D02*
X157478572Y-98334982D01*
X157783334Y-98792125D02*
X158088095Y-98792125D01*
X158316667Y-98296887D02*
X158183334Y-98296887D01*
X158183334Y-98715935D02*
X158183334Y-97915935D01*
X158183334Y-97915935D02*
X158373810Y-97915935D01*
X158659524Y-98296887D02*
X158716667Y-98334982D01*
X158716667Y-98334982D02*
X158735714Y-98373078D01*
X158735714Y-98373078D02*
X158754762Y-98449268D01*
X158754762Y-98449268D02*
X158754762Y-98563554D01*
X158754762Y-98563554D02*
X158735714Y-98639744D01*
X158735714Y-98639744D02*
X158716667Y-98677840D01*
X158716667Y-98677840D02*
X158678572Y-98715935D01*
X158678572Y-98715935D02*
X158526191Y-98715935D01*
X158526191Y-98715935D02*
X158526191Y-97915935D01*
X158526191Y-97915935D02*
X158659524Y-97915935D01*
X158659524Y-97915935D02*
X158697619Y-97954030D01*
X158697619Y-97954030D02*
X158716667Y-97992125D01*
X158716667Y-97992125D02*
X158735714Y-98068316D01*
X158735714Y-98068316D02*
X158735714Y-98144506D01*
X158735714Y-98144506D02*
X158716667Y-98220697D01*
X158716667Y-98220697D02*
X158697619Y-98258792D01*
X158697619Y-98258792D02*
X158659524Y-98296887D01*
X158659524Y-98296887D02*
X158526191Y-98296887D01*
X158869048Y-97915935D02*
X159097619Y-97915935D01*
X158983333Y-98715935D02*
X158983333Y-97915935D01*
X159440476Y-98715935D02*
X159211905Y-98715935D01*
X159326191Y-98715935D02*
X159326191Y-97915935D01*
X159326191Y-97915935D02*
X159288095Y-98030220D01*
X159288095Y-98030220D02*
X159250000Y-98106411D01*
X159250000Y-98106411D02*
X159211905Y-98144506D01*
D11*
X173138095Y-64922342D02*
X173138095Y-65893771D01*
X173138095Y-65893771D02*
X173185714Y-66008057D01*
X173185714Y-66008057D02*
X173233333Y-66065200D01*
X173233333Y-66065200D02*
X173328571Y-66122342D01*
X173328571Y-66122342D02*
X173519047Y-66122342D01*
X173519047Y-66122342D02*
X173614285Y-66065200D01*
X173614285Y-66065200D02*
X173661904Y-66008057D01*
X173661904Y-66008057D02*
X173709523Y-65893771D01*
X173709523Y-65893771D02*
X173709523Y-64922342D01*
X174138095Y-65036628D02*
X174185714Y-64979485D01*
X174185714Y-64979485D02*
X174280952Y-64922342D01*
X174280952Y-64922342D02*
X174519047Y-64922342D01*
X174519047Y-64922342D02*
X174614285Y-64979485D01*
X174614285Y-64979485D02*
X174661904Y-65036628D01*
X174661904Y-65036628D02*
X174709523Y-65150914D01*
X174709523Y-65150914D02*
X174709523Y-65265200D01*
X174709523Y-65265200D02*
X174661904Y-65436628D01*
X174661904Y-65436628D02*
X174090476Y-66122342D01*
X174090476Y-66122342D02*
X174709523Y-66122342D01*
D10*
X150990476Y-77215935D02*
X150857143Y-76834982D01*
X150761905Y-77215935D02*
X150761905Y-76415935D01*
X150761905Y-76415935D02*
X150914286Y-76415935D01*
X150914286Y-76415935D02*
X150952381Y-76454030D01*
X150952381Y-76454030D02*
X150971428Y-76492125D01*
X150971428Y-76492125D02*
X150990476Y-76568316D01*
X150990476Y-76568316D02*
X150990476Y-76682601D01*
X150990476Y-76682601D02*
X150971428Y-76758792D01*
X150971428Y-76758792D02*
X150952381Y-76796887D01*
X150952381Y-76796887D02*
X150914286Y-76834982D01*
X150914286Y-76834982D02*
X150761905Y-76834982D01*
X151066667Y-77292125D02*
X151371428Y-77292125D01*
X151466667Y-76796887D02*
X151600000Y-76796887D01*
X151657143Y-77215935D02*
X151466667Y-77215935D01*
X151466667Y-77215935D02*
X151466667Y-76415935D01*
X151466667Y-76415935D02*
X151657143Y-76415935D01*
X151828572Y-77215935D02*
X151828572Y-76415935D01*
X151828572Y-76415935D02*
X152057143Y-77215935D01*
X152057143Y-77215935D02*
X152057143Y-76415935D01*
X152457143Y-77215935D02*
X152228572Y-77215935D01*
X152342858Y-77215935D02*
X152342858Y-76415935D01*
X152342858Y-76415935D02*
X152304762Y-76530220D01*
X152304762Y-76530220D02*
X152266667Y-76606411D01*
X152266667Y-76606411D02*
X152228572Y-76644506D01*
X160965935Y-99240475D02*
X160584982Y-99373808D01*
X160965935Y-99469046D02*
X160165935Y-99469046D01*
X160165935Y-99469046D02*
X160165935Y-99316665D01*
X160165935Y-99316665D02*
X160204030Y-99278570D01*
X160204030Y-99278570D02*
X160242125Y-99259523D01*
X160242125Y-99259523D02*
X160318316Y-99240475D01*
X160318316Y-99240475D02*
X160432601Y-99240475D01*
X160432601Y-99240475D02*
X160508792Y-99259523D01*
X160508792Y-99259523D02*
X160546887Y-99278570D01*
X160546887Y-99278570D02*
X160584982Y-99316665D01*
X160584982Y-99316665D02*
X160584982Y-99469046D01*
X161042125Y-99164285D02*
X161042125Y-98859523D01*
X160546887Y-98630951D02*
X160546887Y-98764284D01*
X160965935Y-98764284D02*
X160165935Y-98764284D01*
X160165935Y-98764284D02*
X160165935Y-98573808D01*
X160546887Y-98288094D02*
X160584982Y-98230951D01*
X160584982Y-98230951D02*
X160623078Y-98211904D01*
X160623078Y-98211904D02*
X160699268Y-98192856D01*
X160699268Y-98192856D02*
X160813554Y-98192856D01*
X160813554Y-98192856D02*
X160889744Y-98211904D01*
X160889744Y-98211904D02*
X160927840Y-98230951D01*
X160927840Y-98230951D02*
X160965935Y-98269046D01*
X160965935Y-98269046D02*
X160965935Y-98421427D01*
X160965935Y-98421427D02*
X160165935Y-98421427D01*
X160165935Y-98421427D02*
X160165935Y-98288094D01*
X160165935Y-98288094D02*
X160204030Y-98249999D01*
X160204030Y-98249999D02*
X160242125Y-98230951D01*
X160242125Y-98230951D02*
X160318316Y-98211904D01*
X160318316Y-98211904D02*
X160394506Y-98211904D01*
X160394506Y-98211904D02*
X160470697Y-98230951D01*
X160470697Y-98230951D02*
X160508792Y-98249999D01*
X160508792Y-98249999D02*
X160546887Y-98288094D01*
X160546887Y-98288094D02*
X160546887Y-98421427D01*
X160546887Y-97888094D02*
X160584982Y-97830951D01*
X160584982Y-97830951D02*
X160623078Y-97811904D01*
X160623078Y-97811904D02*
X160699268Y-97792856D01*
X160699268Y-97792856D02*
X160813554Y-97792856D01*
X160813554Y-97792856D02*
X160889744Y-97811904D01*
X160889744Y-97811904D02*
X160927840Y-97830951D01*
X160927840Y-97830951D02*
X160965935Y-97869046D01*
X160965935Y-97869046D02*
X160965935Y-98021427D01*
X160965935Y-98021427D02*
X160165935Y-98021427D01*
X160165935Y-98021427D02*
X160165935Y-97888094D01*
X160165935Y-97888094D02*
X160204030Y-97849999D01*
X160204030Y-97849999D02*
X160242125Y-97830951D01*
X160242125Y-97830951D02*
X160318316Y-97811904D01*
X160318316Y-97811904D02*
X160394506Y-97811904D01*
X160394506Y-97811904D02*
X160470697Y-97830951D01*
X160470697Y-97830951D02*
X160508792Y-97849999D01*
X160508792Y-97849999D02*
X160546887Y-97888094D01*
X160546887Y-97888094D02*
X160546887Y-98021427D01*
X160965935Y-97411904D02*
X160965935Y-97640475D01*
X160965935Y-97526189D02*
X160165935Y-97526189D01*
X160165935Y-97526189D02*
X160280220Y-97564285D01*
X160280220Y-97564285D02*
X160356411Y-97602380D01*
X160356411Y-97602380D02*
X160394506Y-97640475D01*
X159089744Y-95049999D02*
X159127840Y-95069047D01*
X159127840Y-95069047D02*
X159165935Y-95126189D01*
X159165935Y-95126189D02*
X159165935Y-95164285D01*
X159165935Y-95164285D02*
X159127840Y-95221428D01*
X159127840Y-95221428D02*
X159051649Y-95259523D01*
X159051649Y-95259523D02*
X158975459Y-95278570D01*
X158975459Y-95278570D02*
X158823078Y-95297618D01*
X158823078Y-95297618D02*
X158708792Y-95297618D01*
X158708792Y-95297618D02*
X158556411Y-95278570D01*
X158556411Y-95278570D02*
X158480220Y-95259523D01*
X158480220Y-95259523D02*
X158404030Y-95221428D01*
X158404030Y-95221428D02*
X158365935Y-95164285D01*
X158365935Y-95164285D02*
X158365935Y-95126189D01*
X158365935Y-95126189D02*
X158404030Y-95069047D01*
X158404030Y-95069047D02*
X158442125Y-95049999D01*
X159242125Y-94973809D02*
X159242125Y-94669047D01*
X159165935Y-94573808D02*
X158365935Y-94573808D01*
X158746887Y-94573808D02*
X158746887Y-94345237D01*
X159165935Y-94345237D02*
X158365935Y-94345237D01*
X158746887Y-94021427D02*
X158746887Y-94154760D01*
X159165935Y-94154760D02*
X158365935Y-94154760D01*
X158365935Y-94154760D02*
X158365935Y-93964284D01*
X159165935Y-93602380D02*
X159165935Y-93830951D01*
X159165935Y-93716665D02*
X158365935Y-93716665D01*
X158365935Y-93716665D02*
X158480220Y-93754761D01*
X158480220Y-93754761D02*
X158556411Y-93792856D01*
X158556411Y-93792856D02*
X158594506Y-93830951D01*
X170009523Y-98539744D02*
X169990475Y-98577840D01*
X169990475Y-98577840D02*
X169933333Y-98615935D01*
X169933333Y-98615935D02*
X169895237Y-98615935D01*
X169895237Y-98615935D02*
X169838094Y-98577840D01*
X169838094Y-98577840D02*
X169799999Y-98501649D01*
X169799999Y-98501649D02*
X169780952Y-98425459D01*
X169780952Y-98425459D02*
X169761904Y-98273078D01*
X169761904Y-98273078D02*
X169761904Y-98158792D01*
X169761904Y-98158792D02*
X169780952Y-98006411D01*
X169780952Y-98006411D02*
X169799999Y-97930220D01*
X169799999Y-97930220D02*
X169838094Y-97854030D01*
X169838094Y-97854030D02*
X169895237Y-97815935D01*
X169895237Y-97815935D02*
X169933333Y-97815935D01*
X169933333Y-97815935D02*
X169990475Y-97854030D01*
X169990475Y-97854030D02*
X170009523Y-97892125D01*
X170085714Y-98692125D02*
X170390475Y-98692125D01*
X170561904Y-97815935D02*
X170638095Y-97815935D01*
X170638095Y-97815935D02*
X170676190Y-97854030D01*
X170676190Y-97854030D02*
X170714285Y-97930220D01*
X170714285Y-97930220D02*
X170733333Y-98082601D01*
X170733333Y-98082601D02*
X170733333Y-98349268D01*
X170733333Y-98349268D02*
X170714285Y-98501649D01*
X170714285Y-98501649D02*
X170676190Y-98577840D01*
X170676190Y-98577840D02*
X170638095Y-98615935D01*
X170638095Y-98615935D02*
X170561904Y-98615935D01*
X170561904Y-98615935D02*
X170523809Y-98577840D01*
X170523809Y-98577840D02*
X170485714Y-98501649D01*
X170485714Y-98501649D02*
X170466666Y-98349268D01*
X170466666Y-98349268D02*
X170466666Y-98082601D01*
X170466666Y-98082601D02*
X170485714Y-97930220D01*
X170485714Y-97930220D02*
X170523809Y-97854030D01*
X170523809Y-97854030D02*
X170561904Y-97815935D01*
X170904762Y-97815935D02*
X170904762Y-98463554D01*
X170904762Y-98463554D02*
X170923809Y-98539744D01*
X170923809Y-98539744D02*
X170942857Y-98577840D01*
X170942857Y-98577840D02*
X170980952Y-98615935D01*
X170980952Y-98615935D02*
X171057143Y-98615935D01*
X171057143Y-98615935D02*
X171095238Y-98577840D01*
X171095238Y-98577840D02*
X171114285Y-98539744D01*
X171114285Y-98539744D02*
X171133333Y-98463554D01*
X171133333Y-98463554D02*
X171133333Y-97815935D01*
X171266667Y-97815935D02*
X171495238Y-97815935D01*
X171380952Y-98615935D02*
X171380952Y-97815935D01*
X171838095Y-98615935D02*
X171609524Y-98615935D01*
X171723810Y-98615935D02*
X171723810Y-97815935D01*
X171723810Y-97815935D02*
X171685714Y-97930220D01*
X171685714Y-97930220D02*
X171647619Y-98006411D01*
X171647619Y-98006411D02*
X171609524Y-98044506D01*
X179615935Y-112319047D02*
X179234982Y-112452380D01*
X179615935Y-112547618D02*
X178815935Y-112547618D01*
X178815935Y-112547618D02*
X178815935Y-112395237D01*
X178815935Y-112395237D02*
X178854030Y-112357142D01*
X178854030Y-112357142D02*
X178892125Y-112338095D01*
X178892125Y-112338095D02*
X178968316Y-112319047D01*
X178968316Y-112319047D02*
X179082601Y-112319047D01*
X179082601Y-112319047D02*
X179158792Y-112338095D01*
X179158792Y-112338095D02*
X179196887Y-112357142D01*
X179196887Y-112357142D02*
X179234982Y-112395237D01*
X179234982Y-112395237D02*
X179234982Y-112547618D01*
X179692125Y-112242857D02*
X179692125Y-111938095D01*
X179539744Y-111614285D02*
X179577840Y-111633333D01*
X179577840Y-111633333D02*
X179615935Y-111690475D01*
X179615935Y-111690475D02*
X179615935Y-111728571D01*
X179615935Y-111728571D02*
X179577840Y-111785714D01*
X179577840Y-111785714D02*
X179501649Y-111823809D01*
X179501649Y-111823809D02*
X179425459Y-111842856D01*
X179425459Y-111842856D02*
X179273078Y-111861904D01*
X179273078Y-111861904D02*
X179158792Y-111861904D01*
X179158792Y-111861904D02*
X179006411Y-111842856D01*
X179006411Y-111842856D02*
X178930220Y-111823809D01*
X178930220Y-111823809D02*
X178854030Y-111785714D01*
X178854030Y-111785714D02*
X178815935Y-111728571D01*
X178815935Y-111728571D02*
X178815935Y-111690475D01*
X178815935Y-111690475D02*
X178854030Y-111633333D01*
X178854030Y-111633333D02*
X178892125Y-111614285D01*
X179539744Y-111214285D02*
X179577840Y-111233333D01*
X179577840Y-111233333D02*
X179615935Y-111290475D01*
X179615935Y-111290475D02*
X179615935Y-111328571D01*
X179615935Y-111328571D02*
X179577840Y-111385714D01*
X179577840Y-111385714D02*
X179501649Y-111423809D01*
X179501649Y-111423809D02*
X179425459Y-111442856D01*
X179425459Y-111442856D02*
X179273078Y-111461904D01*
X179273078Y-111461904D02*
X179158792Y-111461904D01*
X179158792Y-111461904D02*
X179006411Y-111442856D01*
X179006411Y-111442856D02*
X178930220Y-111423809D01*
X178930220Y-111423809D02*
X178854030Y-111385714D01*
X178854030Y-111385714D02*
X178815935Y-111328571D01*
X178815935Y-111328571D02*
X178815935Y-111290475D01*
X178815935Y-111290475D02*
X178854030Y-111233333D01*
X178854030Y-111233333D02*
X178892125Y-111214285D01*
X178892125Y-111061904D02*
X178854030Y-111042856D01*
X178854030Y-111042856D02*
X178815935Y-111004761D01*
X178815935Y-111004761D02*
X178815935Y-110909523D01*
X178815935Y-110909523D02*
X178854030Y-110871428D01*
X178854030Y-110871428D02*
X178892125Y-110852380D01*
X178892125Y-110852380D02*
X178968316Y-110833333D01*
X178968316Y-110833333D02*
X179044506Y-110833333D01*
X179044506Y-110833333D02*
X179158792Y-110852380D01*
X179158792Y-110852380D02*
X179615935Y-111080952D01*
X179615935Y-111080952D02*
X179615935Y-110833333D01*
X150165935Y-116300000D02*
X149784982Y-116433333D01*
X150165935Y-116528571D02*
X149365935Y-116528571D01*
X149365935Y-116528571D02*
X149365935Y-116376190D01*
X149365935Y-116376190D02*
X149404030Y-116338095D01*
X149404030Y-116338095D02*
X149442125Y-116319048D01*
X149442125Y-116319048D02*
X149518316Y-116300000D01*
X149518316Y-116300000D02*
X149632601Y-116300000D01*
X149632601Y-116300000D02*
X149708792Y-116319048D01*
X149708792Y-116319048D02*
X149746887Y-116338095D01*
X149746887Y-116338095D02*
X149784982Y-116376190D01*
X149784982Y-116376190D02*
X149784982Y-116528571D01*
X150242125Y-116223810D02*
X150242125Y-115919048D01*
X149365935Y-115880952D02*
X149365935Y-115652381D01*
X150165935Y-115766667D02*
X149365935Y-115766667D01*
X149365935Y-115442857D02*
X149365935Y-115366666D01*
X149365935Y-115366666D02*
X149404030Y-115328571D01*
X149404030Y-115328571D02*
X149480220Y-115290476D01*
X149480220Y-115290476D02*
X149632601Y-115271428D01*
X149632601Y-115271428D02*
X149899268Y-115271428D01*
X149899268Y-115271428D02*
X150051649Y-115290476D01*
X150051649Y-115290476D02*
X150127840Y-115328571D01*
X150127840Y-115328571D02*
X150165935Y-115366666D01*
X150165935Y-115366666D02*
X150165935Y-115442857D01*
X150165935Y-115442857D02*
X150127840Y-115480952D01*
X150127840Y-115480952D02*
X150051649Y-115519047D01*
X150051649Y-115519047D02*
X149899268Y-115538095D01*
X149899268Y-115538095D02*
X149632601Y-115538095D01*
X149632601Y-115538095D02*
X149480220Y-115519047D01*
X149480220Y-115519047D02*
X149404030Y-115480952D01*
X149404030Y-115480952D02*
X149365935Y-115442857D01*
X149365935Y-115099999D02*
X150013554Y-115099999D01*
X150013554Y-115099999D02*
X150089744Y-115080952D01*
X150089744Y-115080952D02*
X150127840Y-115061904D01*
X150127840Y-115061904D02*
X150165935Y-115023809D01*
X150165935Y-115023809D02*
X150165935Y-114947618D01*
X150165935Y-114947618D02*
X150127840Y-114909523D01*
X150127840Y-114909523D02*
X150089744Y-114890476D01*
X150089744Y-114890476D02*
X150013554Y-114871428D01*
X150013554Y-114871428D02*
X149365935Y-114871428D01*
X150089744Y-114452380D02*
X150127840Y-114471428D01*
X150127840Y-114471428D02*
X150165935Y-114528570D01*
X150165935Y-114528570D02*
X150165935Y-114566666D01*
X150165935Y-114566666D02*
X150127840Y-114623809D01*
X150127840Y-114623809D02*
X150051649Y-114661904D01*
X150051649Y-114661904D02*
X149975459Y-114680951D01*
X149975459Y-114680951D02*
X149823078Y-114699999D01*
X149823078Y-114699999D02*
X149708792Y-114699999D01*
X149708792Y-114699999D02*
X149556411Y-114680951D01*
X149556411Y-114680951D02*
X149480220Y-114661904D01*
X149480220Y-114661904D02*
X149404030Y-114623809D01*
X149404030Y-114623809D02*
X149365935Y-114566666D01*
X149365935Y-114566666D02*
X149365935Y-114528570D01*
X149365935Y-114528570D02*
X149404030Y-114471428D01*
X149404030Y-114471428D02*
X149442125Y-114452380D01*
X150165935Y-114280951D02*
X149365935Y-114280951D01*
X149746887Y-114280951D02*
X149746887Y-114052380D01*
X150165935Y-114052380D02*
X149365935Y-114052380D01*
X150165935Y-113652380D02*
X150165935Y-113880951D01*
X150165935Y-113766665D02*
X149365935Y-113766665D01*
X149365935Y-113766665D02*
X149480220Y-113804761D01*
X149480220Y-113804761D02*
X149556411Y-113842856D01*
X149556411Y-113842856D02*
X149594506Y-113880951D01*
X157815935Y-114190476D02*
X157434982Y-114323809D01*
X157815935Y-114419047D02*
X157015935Y-114419047D01*
X157015935Y-114419047D02*
X157015935Y-114266666D01*
X157015935Y-114266666D02*
X157054030Y-114228571D01*
X157054030Y-114228571D02*
X157092125Y-114209524D01*
X157092125Y-114209524D02*
X157168316Y-114190476D01*
X157168316Y-114190476D02*
X157282601Y-114190476D01*
X157282601Y-114190476D02*
X157358792Y-114209524D01*
X157358792Y-114209524D02*
X157396887Y-114228571D01*
X157396887Y-114228571D02*
X157434982Y-114266666D01*
X157434982Y-114266666D02*
X157434982Y-114419047D01*
X157892125Y-114114286D02*
X157892125Y-113809524D01*
X157396887Y-113580952D02*
X157434982Y-113523809D01*
X157434982Y-113523809D02*
X157473078Y-113504762D01*
X157473078Y-113504762D02*
X157549268Y-113485714D01*
X157549268Y-113485714D02*
X157663554Y-113485714D01*
X157663554Y-113485714D02*
X157739744Y-113504762D01*
X157739744Y-113504762D02*
X157777840Y-113523809D01*
X157777840Y-113523809D02*
X157815935Y-113561904D01*
X157815935Y-113561904D02*
X157815935Y-113714285D01*
X157815935Y-113714285D02*
X157015935Y-113714285D01*
X157015935Y-113714285D02*
X157015935Y-113580952D01*
X157015935Y-113580952D02*
X157054030Y-113542857D01*
X157054030Y-113542857D02*
X157092125Y-113523809D01*
X157092125Y-113523809D02*
X157168316Y-113504762D01*
X157168316Y-113504762D02*
X157244506Y-113504762D01*
X157244506Y-113504762D02*
X157320697Y-113523809D01*
X157320697Y-113523809D02*
X157358792Y-113542857D01*
X157358792Y-113542857D02*
X157396887Y-113580952D01*
X157396887Y-113580952D02*
X157396887Y-113714285D01*
X157015935Y-113238095D02*
X157015935Y-113161904D01*
X157015935Y-113161904D02*
X157054030Y-113123809D01*
X157054030Y-113123809D02*
X157130220Y-113085714D01*
X157130220Y-113085714D02*
X157282601Y-113066666D01*
X157282601Y-113066666D02*
X157549268Y-113066666D01*
X157549268Y-113066666D02*
X157701649Y-113085714D01*
X157701649Y-113085714D02*
X157777840Y-113123809D01*
X157777840Y-113123809D02*
X157815935Y-113161904D01*
X157815935Y-113161904D02*
X157815935Y-113238095D01*
X157815935Y-113238095D02*
X157777840Y-113276190D01*
X157777840Y-113276190D02*
X157701649Y-113314285D01*
X157701649Y-113314285D02*
X157549268Y-113333333D01*
X157549268Y-113333333D02*
X157282601Y-113333333D01*
X157282601Y-113333333D02*
X157130220Y-113314285D01*
X157130220Y-113314285D02*
X157054030Y-113276190D01*
X157054030Y-113276190D02*
X157015935Y-113238095D01*
X157015935Y-112819047D02*
X157015935Y-112742856D01*
X157015935Y-112742856D02*
X157054030Y-112704761D01*
X157054030Y-112704761D02*
X157130220Y-112666666D01*
X157130220Y-112666666D02*
X157282601Y-112647618D01*
X157282601Y-112647618D02*
X157549268Y-112647618D01*
X157549268Y-112647618D02*
X157701649Y-112666666D01*
X157701649Y-112666666D02*
X157777840Y-112704761D01*
X157777840Y-112704761D02*
X157815935Y-112742856D01*
X157815935Y-112742856D02*
X157815935Y-112819047D01*
X157815935Y-112819047D02*
X157777840Y-112857142D01*
X157777840Y-112857142D02*
X157701649Y-112895237D01*
X157701649Y-112895237D02*
X157549268Y-112914285D01*
X157549268Y-112914285D02*
X157282601Y-112914285D01*
X157282601Y-112914285D02*
X157130220Y-112895237D01*
X157130220Y-112895237D02*
X157054030Y-112857142D01*
X157054030Y-112857142D02*
X157015935Y-112819047D01*
X157015935Y-112533332D02*
X157015935Y-112304761D01*
X157815935Y-112419047D02*
X157015935Y-112419047D01*
X157815935Y-111961904D02*
X157815935Y-112190475D01*
X157815935Y-112076189D02*
X157015935Y-112076189D01*
X157015935Y-112076189D02*
X157130220Y-112114285D01*
X157130220Y-112114285D02*
X157206411Y-112152380D01*
X157206411Y-112152380D02*
X157244506Y-112190475D01*
X173415935Y-95159523D02*
X173034982Y-95292856D01*
X173415935Y-95388094D02*
X172615935Y-95388094D01*
X172615935Y-95388094D02*
X172615935Y-95235713D01*
X172615935Y-95235713D02*
X172654030Y-95197618D01*
X172654030Y-95197618D02*
X172692125Y-95178571D01*
X172692125Y-95178571D02*
X172768316Y-95159523D01*
X172768316Y-95159523D02*
X172882601Y-95159523D01*
X172882601Y-95159523D02*
X172958792Y-95178571D01*
X172958792Y-95178571D02*
X172996887Y-95197618D01*
X172996887Y-95197618D02*
X173034982Y-95235713D01*
X173034982Y-95235713D02*
X173034982Y-95388094D01*
X173492125Y-95083333D02*
X173492125Y-94778571D01*
X173415935Y-94454761D02*
X173034982Y-94588094D01*
X173415935Y-94683332D02*
X172615935Y-94683332D01*
X172615935Y-94683332D02*
X172615935Y-94530951D01*
X172615935Y-94530951D02*
X172654030Y-94492856D01*
X172654030Y-94492856D02*
X172692125Y-94473809D01*
X172692125Y-94473809D02*
X172768316Y-94454761D01*
X172768316Y-94454761D02*
X172882601Y-94454761D01*
X172882601Y-94454761D02*
X172958792Y-94473809D01*
X172958792Y-94473809D02*
X172996887Y-94492856D01*
X172996887Y-94492856D02*
X173034982Y-94530951D01*
X173034982Y-94530951D02*
X173034982Y-94683332D01*
X172615935Y-94321428D02*
X173415935Y-94054761D01*
X172615935Y-94054761D02*
X173415935Y-94321428D01*
X173415935Y-93902380D02*
X172615935Y-93902380D01*
X172615935Y-93902380D02*
X172615935Y-93807142D01*
X172615935Y-93807142D02*
X172654030Y-93749999D01*
X172654030Y-93749999D02*
X172730220Y-93711904D01*
X172730220Y-93711904D02*
X172806411Y-93692857D01*
X172806411Y-93692857D02*
X172958792Y-93673809D01*
X172958792Y-93673809D02*
X173073078Y-93673809D01*
X173073078Y-93673809D02*
X173225459Y-93692857D01*
X173225459Y-93692857D02*
X173301649Y-93711904D01*
X173301649Y-93711904D02*
X173377840Y-93749999D01*
X173377840Y-93749999D02*
X173415935Y-93807142D01*
X173415935Y-93807142D02*
X173415935Y-93902380D01*
X173415935Y-93292857D02*
X173415935Y-93521428D01*
X173415935Y-93407142D02*
X172615935Y-93407142D01*
X172615935Y-93407142D02*
X172730220Y-93445238D01*
X172730220Y-93445238D02*
X172806411Y-93483333D01*
X172806411Y-93483333D02*
X172844506Y-93521428D01*
X147133332Y-117415935D02*
X147133332Y-117987363D01*
X147133332Y-117987363D02*
X147114285Y-118101649D01*
X147114285Y-118101649D02*
X147076189Y-118177840D01*
X147076189Y-118177840D02*
X147019047Y-118215935D01*
X147019047Y-118215935D02*
X146980951Y-118215935D01*
X147228571Y-118292125D02*
X147533332Y-118292125D01*
X147571428Y-117415935D02*
X147799999Y-117415935D01*
X147685713Y-118215935D02*
X147685713Y-117415935D01*
X148009523Y-117415935D02*
X148085714Y-117415935D01*
X148085714Y-117415935D02*
X148123809Y-117454030D01*
X148123809Y-117454030D02*
X148161904Y-117530220D01*
X148161904Y-117530220D02*
X148180952Y-117682601D01*
X148180952Y-117682601D02*
X148180952Y-117949268D01*
X148180952Y-117949268D02*
X148161904Y-118101649D01*
X148161904Y-118101649D02*
X148123809Y-118177840D01*
X148123809Y-118177840D02*
X148085714Y-118215935D01*
X148085714Y-118215935D02*
X148009523Y-118215935D01*
X148009523Y-118215935D02*
X147971428Y-118177840D01*
X147971428Y-118177840D02*
X147933333Y-118101649D01*
X147933333Y-118101649D02*
X147914285Y-117949268D01*
X147914285Y-117949268D02*
X147914285Y-117682601D01*
X147914285Y-117682601D02*
X147933333Y-117530220D01*
X147933333Y-117530220D02*
X147971428Y-117454030D01*
X147971428Y-117454030D02*
X148009523Y-117415935D01*
X148352381Y-117415935D02*
X148352381Y-118063554D01*
X148352381Y-118063554D02*
X148371428Y-118139744D01*
X148371428Y-118139744D02*
X148390476Y-118177840D01*
X148390476Y-118177840D02*
X148428571Y-118215935D01*
X148428571Y-118215935D02*
X148504762Y-118215935D01*
X148504762Y-118215935D02*
X148542857Y-118177840D01*
X148542857Y-118177840D02*
X148561904Y-118139744D01*
X148561904Y-118139744D02*
X148580952Y-118063554D01*
X148580952Y-118063554D02*
X148580952Y-117415935D01*
X149000000Y-118139744D02*
X148980952Y-118177840D01*
X148980952Y-118177840D02*
X148923810Y-118215935D01*
X148923810Y-118215935D02*
X148885714Y-118215935D01*
X148885714Y-118215935D02*
X148828571Y-118177840D01*
X148828571Y-118177840D02*
X148790476Y-118101649D01*
X148790476Y-118101649D02*
X148771429Y-118025459D01*
X148771429Y-118025459D02*
X148752381Y-117873078D01*
X148752381Y-117873078D02*
X148752381Y-117758792D01*
X148752381Y-117758792D02*
X148771429Y-117606411D01*
X148771429Y-117606411D02*
X148790476Y-117530220D01*
X148790476Y-117530220D02*
X148828571Y-117454030D01*
X148828571Y-117454030D02*
X148885714Y-117415935D01*
X148885714Y-117415935D02*
X148923810Y-117415935D01*
X148923810Y-117415935D02*
X148980952Y-117454030D01*
X148980952Y-117454030D02*
X149000000Y-117492125D01*
X149171429Y-118215935D02*
X149171429Y-117415935D01*
X149171429Y-117796887D02*
X149400000Y-117796887D01*
X149400000Y-118215935D02*
X149400000Y-117415935D01*
X149800000Y-118215935D02*
X149571429Y-118215935D01*
X149685715Y-118215935D02*
X149685715Y-117415935D01*
X149685715Y-117415935D02*
X149647619Y-117530220D01*
X149647619Y-117530220D02*
X149609524Y-117606411D01*
X149609524Y-117606411D02*
X149571429Y-117644506D01*
X161745238Y-92415935D02*
X161745238Y-93063554D01*
X161745238Y-93063554D02*
X161764285Y-93139744D01*
X161764285Y-93139744D02*
X161783333Y-93177840D01*
X161783333Y-93177840D02*
X161821428Y-93215935D01*
X161821428Y-93215935D02*
X161897619Y-93215935D01*
X161897619Y-93215935D02*
X161935714Y-93177840D01*
X161935714Y-93177840D02*
X161954761Y-93139744D01*
X161954761Y-93139744D02*
X161973809Y-93063554D01*
X161973809Y-93063554D02*
X161973809Y-92415935D01*
X162373809Y-93215935D02*
X162145238Y-93215935D01*
X162259524Y-93215935D02*
X162259524Y-92415935D01*
X162259524Y-92415935D02*
X162221428Y-92530220D01*
X162221428Y-92530220D02*
X162183333Y-92606411D01*
X162183333Y-92606411D02*
X162145238Y-92644506D01*
X151139744Y-71290475D02*
X151177840Y-71309523D01*
X151177840Y-71309523D02*
X151215935Y-71366665D01*
X151215935Y-71366665D02*
X151215935Y-71404761D01*
X151215935Y-71404761D02*
X151177840Y-71461904D01*
X151177840Y-71461904D02*
X151101649Y-71499999D01*
X151101649Y-71499999D02*
X151025459Y-71519046D01*
X151025459Y-71519046D02*
X150873078Y-71538094D01*
X150873078Y-71538094D02*
X150758792Y-71538094D01*
X150758792Y-71538094D02*
X150606411Y-71519046D01*
X150606411Y-71519046D02*
X150530220Y-71499999D01*
X150530220Y-71499999D02*
X150454030Y-71461904D01*
X150454030Y-71461904D02*
X150415935Y-71404761D01*
X150415935Y-71404761D02*
X150415935Y-71366665D01*
X150415935Y-71366665D02*
X150454030Y-71309523D01*
X150454030Y-71309523D02*
X150492125Y-71290475D01*
X151292125Y-71214285D02*
X151292125Y-70909523D01*
X150415935Y-70871427D02*
X151215935Y-70738094D01*
X151215935Y-70738094D02*
X150415935Y-70604761D01*
X151215935Y-70471427D02*
X150415935Y-70471427D01*
X150415935Y-70471427D02*
X150415935Y-70376189D01*
X150415935Y-70376189D02*
X150454030Y-70319046D01*
X150454030Y-70319046D02*
X150530220Y-70280951D01*
X150530220Y-70280951D02*
X150606411Y-70261904D01*
X150606411Y-70261904D02*
X150758792Y-70242856D01*
X150758792Y-70242856D02*
X150873078Y-70242856D01*
X150873078Y-70242856D02*
X151025459Y-70261904D01*
X151025459Y-70261904D02*
X151101649Y-70280951D01*
X151101649Y-70280951D02*
X151177840Y-70319046D01*
X151177840Y-70319046D02*
X151215935Y-70376189D01*
X151215935Y-70376189D02*
X151215935Y-70471427D01*
X151215935Y-70071427D02*
X150415935Y-70071427D01*
X150415935Y-70071427D02*
X150415935Y-69976189D01*
X150415935Y-69976189D02*
X150454030Y-69919046D01*
X150454030Y-69919046D02*
X150530220Y-69880951D01*
X150530220Y-69880951D02*
X150606411Y-69861904D01*
X150606411Y-69861904D02*
X150758792Y-69842856D01*
X150758792Y-69842856D02*
X150873078Y-69842856D01*
X150873078Y-69842856D02*
X151025459Y-69861904D01*
X151025459Y-69861904D02*
X151101649Y-69880951D01*
X151101649Y-69880951D02*
X151177840Y-69919046D01*
X151177840Y-69919046D02*
X151215935Y-69976189D01*
X151215935Y-69976189D02*
X151215935Y-70071427D01*
X150492125Y-69690475D02*
X150454030Y-69671427D01*
X150454030Y-69671427D02*
X150415935Y-69633332D01*
X150415935Y-69633332D02*
X150415935Y-69538094D01*
X150415935Y-69538094D02*
X150454030Y-69499999D01*
X150454030Y-69499999D02*
X150492125Y-69480951D01*
X150492125Y-69480951D02*
X150568316Y-69461904D01*
X150568316Y-69461904D02*
X150644506Y-69461904D01*
X150644506Y-69461904D02*
X150758792Y-69480951D01*
X150758792Y-69480951D02*
X151215935Y-69709523D01*
X151215935Y-69709523D02*
X151215935Y-69461904D01*
X148389744Y-77259523D02*
X148427840Y-77278571D01*
X148427840Y-77278571D02*
X148465935Y-77335713D01*
X148465935Y-77335713D02*
X148465935Y-77373809D01*
X148465935Y-77373809D02*
X148427840Y-77430952D01*
X148427840Y-77430952D02*
X148351649Y-77469047D01*
X148351649Y-77469047D02*
X148275459Y-77488094D01*
X148275459Y-77488094D02*
X148123078Y-77507142D01*
X148123078Y-77507142D02*
X148008792Y-77507142D01*
X148008792Y-77507142D02*
X147856411Y-77488094D01*
X147856411Y-77488094D02*
X147780220Y-77469047D01*
X147780220Y-77469047D02*
X147704030Y-77430952D01*
X147704030Y-77430952D02*
X147665935Y-77373809D01*
X147665935Y-77373809D02*
X147665935Y-77335713D01*
X147665935Y-77335713D02*
X147704030Y-77278571D01*
X147704030Y-77278571D02*
X147742125Y-77259523D01*
X148542125Y-77183333D02*
X148542125Y-76878571D01*
X148046887Y-76783332D02*
X148046887Y-76649999D01*
X148465935Y-76592856D02*
X148465935Y-76783332D01*
X148465935Y-76783332D02*
X147665935Y-76783332D01*
X147665935Y-76783332D02*
X147665935Y-76592856D01*
X148465935Y-76421427D02*
X147665935Y-76421427D01*
X147665935Y-76421427D02*
X148465935Y-76192856D01*
X148465935Y-76192856D02*
X147665935Y-76192856D01*
X148465935Y-75792856D02*
X148465935Y-76021427D01*
X148465935Y-75907141D02*
X147665935Y-75907141D01*
X147665935Y-75907141D02*
X147780220Y-75945237D01*
X147780220Y-75945237D02*
X147856411Y-75983332D01*
X147856411Y-75983332D02*
X147894506Y-76021427D01*
%TO.C,C_IN1*%
D12*
X164303733Y-98760000D02*
X164596267Y-98760000D01*
X164303733Y-97740000D02*
X164596267Y-97740000D01*
%TO.C,C_Bulk1*%
X146640000Y-92354437D02*
X146640000Y-93640000D01*
X146640000Y-92354437D02*
X147704437Y-91290000D01*
X146640000Y-97045563D02*
X146640000Y-95760000D01*
X146640000Y-97045563D02*
X147704437Y-98110000D01*
X147704437Y-91290000D02*
X153460000Y-91290000D01*
X147704437Y-98110000D02*
X153460000Y-98110000D01*
X153460000Y-91290000D02*
X153460000Y-93640000D01*
X153460000Y-98110000D02*
X153460000Y-95760000D01*
%TO.C,J_SPK1*%
D13*
X171347999Y-99388000D02*
X185201997Y-99388000D01*
X171347999Y-107342000D02*
X171347999Y-99388000D01*
X172101998Y-99987999D02*
X171347999Y-99987999D01*
X172101998Y-101025737D02*
X172101998Y-99987999D01*
X172101998Y-103241998D02*
X171347999Y-103241998D01*
X172101998Y-103241998D02*
X172101998Y-102204260D01*
X172101998Y-103488002D02*
X171347999Y-103488002D01*
X172101998Y-104525740D02*
X172101998Y-103488002D01*
X172101998Y-106742001D02*
X171347999Y-106742001D01*
X172101998Y-106742001D02*
X172101998Y-105704263D01*
X185201997Y-107342000D02*
X171347999Y-107342000D01*
X185201997Y-107342000D02*
X185201997Y-99388000D01*
D14*
X173205999Y-107977000D02*
G75*
G02*
X172443999Y-107977000I-381000J0D01*
G01*
X172443999Y-107977000D02*
G75*
G02*
X173205999Y-107977000I381000J0D01*
G01*
%TO.C,C_HF2*%
D12*
X155240000Y-94596267D02*
X155240000Y-94303733D01*
X156260000Y-94596267D02*
X156260000Y-94303733D01*
%TO.C,U3*%
D15*
X156650000Y-100450000D02*
X156650000Y-100745000D01*
X156650000Y-100450000D02*
X156945000Y-100450000D01*
X156650000Y-103450000D02*
X156650000Y-103155000D01*
X156650000Y-103450000D02*
X156945000Y-103450000D01*
X159650000Y-100450000D02*
X159355000Y-100450000D01*
X159650000Y-100450000D02*
X159650000Y-100745000D01*
X159650000Y-103450000D02*
X159355000Y-103450000D01*
X159650000Y-103450000D02*
X159650000Y-103155000D01*
D16*
X155775000Y-101200000D02*
G75*
G02*
X155575000Y-101200000I-100000J0D01*
G01*
X155575000Y-101200000D02*
G75*
G02*
X155775000Y-101200000I100000J0D01*
G01*
%TO.C,R_GPIO2*%
D12*
X171545276Y-90627500D02*
X172054724Y-90627500D01*
X171545276Y-91672500D02*
X172054724Y-91672500D01*
%TO.C,S_BOOT1*%
D17*
X154650000Y-116200000D02*
X159250000Y-116200000D01*
X159250000Y-120800000D01*
X154650000Y-120800000D01*
X154650000Y-116200000D01*
X159250000Y-118500000D02*
G75*
G02*
X154650000Y-118500000I-2300000J0D01*
G01*
X154650000Y-118500000D02*
G75*
G02*
X159250000Y-118500000I2300000J0D01*
G01*
%TO.C,C_SD1*%
D12*
X173665000Y-79596267D02*
X173665000Y-79303733D01*
X174685000Y-79596267D02*
X174685000Y-79303733D01*
%TO.C,R_CC1*%
X175677500Y-111904724D02*
X175677500Y-111395276D01*
X176722500Y-111904724D02*
X176722500Y-111395276D01*
%TO.C,J3*%
D13*
X175304000Y-74769500D02*
X175304000Y-86580500D01*
X175304000Y-86580500D02*
X176897433Y-86580500D01*
X177202358Y-74769500D02*
X175304000Y-74769500D01*
X178684567Y-86580500D02*
X179487433Y-86580500D01*
X181146000Y-85032410D02*
X181146000Y-76459237D01*
D14*
X177122000Y-73760500D02*
G75*
G02*
X176360000Y-73760500I-381000J0D01*
G01*
X176360000Y-73760500D02*
G75*
G02*
X177122000Y-73760500I381000J0D01*
G01*
%TO.C,C_VDD1*%
D12*
X151990000Y-73346267D02*
X151990000Y-73053733D01*
X153010000Y-73346267D02*
X153010000Y-73053733D01*
%TO.C,J1*%
D15*
X172560000Y-117650000D02*
X172560000Y-116550000D01*
X172560000Y-121600000D02*
X172560000Y-120350000D01*
X172560000Y-121600000D02*
X181500000Y-121600000D01*
X181500000Y-117650000D02*
X181500000Y-116550000D01*
X181500000Y-121600000D02*
X181500000Y-120350000D01*
%TO.C,S_RST1*%
D17*
X161350000Y-116100000D02*
X165950000Y-116100000D01*
X165950000Y-120700000D01*
X161350000Y-120700000D01*
X161350000Y-116100000D01*
X165950000Y-118400000D02*
G75*
G02*
X161350000Y-118400000I-2300000J0D01*
G01*
X161350000Y-118400000D02*
G75*
G02*
X165950000Y-118400000I2300000J0D01*
G01*
%TO.C,R_FBT1*%
D12*
X158145276Y-96527500D02*
X158654724Y-96527500D01*
X158145276Y-97572500D02*
X158654724Y-97572500D01*
%TO.C,U2*%
D16*
X154550000Y-64450000D02*
X172550000Y-64450000D01*
X154550000Y-71200000D02*
X154550000Y-64450000D01*
X154550000Y-89950000D02*
X154550000Y-89200000D01*
X157050000Y-89950000D02*
X154550000Y-89950000D01*
X172550000Y-64450000D02*
X172550000Y-71200000D01*
X172550000Y-89200000D02*
X172550000Y-89950000D01*
X172550000Y-89950000D02*
X170050000Y-89950000D01*
D17*
X153450000Y-71940000D02*
G75*
G02*
X153550000Y-71940000I50000J0D01*
G01*
X153550000Y-71940000D02*
G75*
G02*
X153450000Y-71940000I-50000J0D01*
G01*
%TO.C,R_EN1*%
D12*
X151345276Y-75152500D02*
X151854724Y-75152500D01*
X151345276Y-76197500D02*
X151854724Y-76197500D01*
%TO.C,J2*%
X174115000Y-98305000D02*
X174115000Y-96975000D01*
X175225000Y-98305000D02*
X174115000Y-98305000D01*
X176685000Y-88995000D02*
X176275000Y-88995000D01*
X176685000Y-89715000D02*
X176275000Y-89715000D01*
X176685000Y-91535000D02*
X176275000Y-91535000D01*
X176685000Y-92255000D02*
X176275000Y-92255000D01*
X176685000Y-94075000D02*
X176275000Y-94075000D01*
X176685000Y-94795000D02*
X176275000Y-94795000D01*
X176685000Y-96615000D02*
X176335000Y-96615000D01*
X176685000Y-97335000D02*
X176335000Y-97335000D01*
X176685000Y-98305000D02*
X176685000Y-88025000D01*
X185315000Y-88025000D02*
X176685000Y-88025000D01*
X185315000Y-90625000D02*
X176685000Y-90625000D01*
X185315000Y-93165000D02*
X176685000Y-93165000D01*
X185315000Y-95705000D02*
X176685000Y-95705000D01*
X185315000Y-95823095D02*
X176685000Y-95823095D01*
X185315000Y-95941190D02*
X176685000Y-95941190D01*
X185315000Y-96059286D02*
X176685000Y-96059286D01*
X185315000Y-96177381D02*
X176685000Y-96177381D01*
X185315000Y-96295476D02*
X176685000Y-96295476D01*
X185315000Y-96413571D02*
X176685000Y-96413571D01*
X185315000Y-96531667D02*
X176685000Y-96531667D01*
X185315000Y-96649762D02*
X176685000Y-96649762D01*
X185315000Y-96767857D02*
X176685000Y-96767857D01*
X185315000Y-96885952D02*
X176685000Y-96885952D01*
X185315000Y-97004048D02*
X176685000Y-97004048D01*
X185315000Y-97122143D02*
X176685000Y-97122143D01*
X185315000Y-97240238D02*
X176685000Y-97240238D01*
X185315000Y-97358333D02*
X176685000Y-97358333D01*
X185315000Y-97476429D02*
X176685000Y-97476429D01*
X185315000Y-97594524D02*
X176685000Y-97594524D01*
X185315000Y-97712619D02*
X176685000Y-97712619D01*
X185315000Y-97830714D02*
X176685000Y-97830714D01*
X185315000Y-97948810D02*
X176685000Y-97948810D01*
X185315000Y-98066905D02*
X176685000Y-98066905D01*
X185315000Y-98185000D02*
X176685000Y-98185000D01*
X185315000Y-98305000D02*
X176685000Y-98305000D01*
X185315000Y-98305000D02*
X185315000Y-88025000D01*
%TO.C,R_FBB1*%
X161327500Y-98245276D02*
X161327500Y-98754724D01*
X162372500Y-98245276D02*
X162372500Y-98754724D01*
%TO.C,C_HF1*%
X156990000Y-94596267D02*
X156990000Y-94303733D01*
X158010000Y-94596267D02*
X158010000Y-94303733D01*
%TO.C,C_OUT1*%
X168196267Y-97740000D02*
X167903733Y-97740000D01*
X168196267Y-98760000D02*
X167903733Y-98760000D01*
%TO.C,R_CC2*%
X177277500Y-111904724D02*
X177277500Y-111395276D01*
X178322500Y-111904724D02*
X178322500Y-111395276D01*
%TO.C,L1*%
X165990000Y-95000000D02*
X165990000Y-97160000D01*
X165990000Y-97160000D02*
X170310000Y-97160000D01*
X168150000Y-92840000D02*
X170310000Y-92840000D01*
X170310000Y-92840000D02*
X170310000Y-97160000D01*
%TO.C,R_TOUCH1*%
X147827500Y-114845276D02*
X147827500Y-115354724D01*
X148872500Y-114845276D02*
X148872500Y-115354724D01*
%TO.C,R_BOOT1*%
X158227500Y-112945276D02*
X158227500Y-113454724D01*
X159272500Y-112945276D02*
X159272500Y-113454724D01*
%TO.C,R_RXD1*%
X171302500Y-94604724D02*
X171302500Y-94095276D01*
X172347500Y-94604724D02*
X172347500Y-94095276D01*
%TO.C,J_TOUCH1*%
X147150000Y-118500000D02*
X149550000Y-118500000D01*
X147150000Y-120900000D02*
X147150000Y-118500000D01*
X149550000Y-118500000D02*
X149550000Y-120900000D01*
X149550000Y-120900000D02*
X147150000Y-120900000D01*
%TO.C,U1*%
D15*
X162262500Y-95235000D02*
X162262500Y-94565000D01*
X162732500Y-93450000D02*
X163392500Y-93450000D01*
X163392500Y-96350000D02*
X162732500Y-96350000D01*
D16*
X165572500Y-95950000D02*
G75*
G02*
X165372500Y-95950000I-100000J0D01*
G01*
X165372500Y-95950000D02*
G75*
G02*
X165572500Y-95950000I100000J0D01*
G01*
%TO.C,C_VDD2*%
D12*
X150340000Y-73346267D02*
X150340000Y-73053733D01*
X151360000Y-73346267D02*
X151360000Y-73053733D01*
%TO.C,C_EN1*%
X148715000Y-76503733D02*
X148715000Y-76796267D01*
X149735000Y-76503733D02*
X149735000Y-76796267D01*
%TD*%
M02*
