%TF.GenerationSoftware,KiCad,Pcbnew,10.0.1*%
%TF.CreationDate,2026-05-25T07:24:00+02:00*%
%TF.ProjectId,ClearBell_Inneneinheit,436c6561-7242-4656-9c6c-5f496e6e656e,rev?*%
%TF.SameCoordinates,Original*%
%TF.FileFunction,Soldermask,Top*%
%TF.FilePolarity,Negative*%
%FSLAX46Y46*%
G04 Gerber Fmt 4.6, Leading zero omitted, Abs format (unit mm)*
G04 Created by KiCad (PCBNEW 10.0.1) date 2026-05-25 07:24:00*
%MOMM*%
%LPD*%
G01*
G04 APERTURE LIST*
G04 Aperture macros list*
%AMRoundRect*
0 Rectangle with rounded corners*
0 $1 Rounding radius*
0 $2 $3 $4 $5 $6 $7 $8 $9 X,Y pos of 4 corners*
0 Add a 4 corners polygon primitive as box body*
4,1,4,$2,$3,$4,$5,$6,$7,$8,$9,$2,$3,0*
0 Add four circle primitives for the rounded corners*
1,1,$1+$1,$2,$3*
1,1,$1+$1,$4,$5*
1,1,$1+$1,$6,$7*
1,1,$1+$1,$8,$9*
0 Add four rect primitives between the rounded corners*
20,1,$1+$1,$2,$3,$4,$5,0*
20,1,$1+$1,$4,$5,$6,$7,0*
20,1,$1+$1,$6,$7,$8,$9,0*
20,1,$1+$1,$8,$9,$2,$3,0*%
G04 Aperture macros list end*
%ADD10RoundRect,0.237500X-0.300000X-0.237500X0.300000X-0.237500X0.300000X0.237500X-0.300000X0.237500X0*%
%ADD11RoundRect,0.250000X-1.412500X-0.550000X1.412500X-0.550000X1.412500X0.550000X-1.412500X0.550000X0*%
%ADD12C,1.700000*%
%ADD13RoundRect,0.237500X0.237500X-0.300000X0.237500X0.300000X-0.237500X0.300000X-0.237500X-0.300000X0*%
%ADD14RoundRect,0.059250X-0.462750X-0.177750X0.462750X-0.177750X0.462750X0.177750X-0.462750X0.177750X0*%
%ADD15RoundRect,0.059250X-0.177750X-0.462750X0.177750X-0.462750X0.177750X0.462750X-0.177750X0.462750X0*%
%ADD16RoundRect,0.102000X-0.550000X-0.550000X0.550000X-0.550000X0.550000X0.550000X-0.550000X0.550000X0*%
%ADD17RoundRect,0.237500X-0.250000X-0.237500X0.250000X-0.237500X0.250000X0.237500X-0.250000X0.237500X0*%
%ADD18R,0.400000X1.000000*%
%ADD19RoundRect,0.237500X0.237500X-0.250000X0.237500X0.250000X-0.237500X0.250000X-0.237500X-0.250000X0*%
%ADD20R,1.143000X1.193800*%
%ADD21R,1.447800X1.193800*%
%ADD22R,0.711200X0.990600*%
%ADD23R,0.889000X1.397000*%
%ADD24R,0.990600X0.711200*%
%ADD25RoundRect,0.102000X-0.350000X-0.575000X0.350000X-0.575000X0.350000X0.575000X-0.350000X0.575000X0*%
%ADD26RoundRect,0.102000X-0.400000X-0.575000X0.400000X-0.575000X0.400000X0.575000X-0.400000X0.575000X0*%
%ADD27RoundRect,0.102000X-0.450000X-0.575000X0.450000X-0.575000X0.450000X0.575000X-0.450000X0.575000X0*%
%ADD28O,1.204000X2.204000*%
%ADD29RoundRect,0.102000X-0.750000X-0.450000X0.750000X-0.450000X0.750000X0.450000X-0.750000X0.450000X0*%
%ADD30RoundRect,0.102000X-0.450000X-0.750000X0.450000X-0.750000X0.450000X0.750000X-0.450000X0.750000X0*%
%ADD31RoundRect,0.102000X-0.450000X-0.450000X0.450000X-0.450000X0.450000X0.450000X-0.450000X0.450000X0*%
%ADD32R,1.700000X1.700000*%
%ADD33RoundRect,0.237500X-0.237500X0.250000X-0.237500X-0.250000X0.237500X-0.250000X0.237500X0.250000X0*%
%ADD34C,4.100000*%
%ADD35RoundRect,0.237500X0.300000X0.237500X-0.300000X0.237500X-0.300000X-0.237500X0.300000X-0.237500X0*%
%ADD36R,0.980000X3.700000*%
%ADD37R,2.000000X2.000000*%
%ADD38RoundRect,0.198500X0.508500X0.198500X-0.508500X0.198500X-0.508500X-0.198500X0.508500X-0.198500X0*%
%ADD39RoundRect,0.237500X-0.237500X0.300000X-0.237500X-0.300000X0.237500X-0.300000X0.237500X0.300000X0*%
G04 APERTURE END LIST*
D10*
%TO.C,C_IN1*%
X165312500Y-98250000D03*
X163587500Y-98250000D03*
%TD*%
D11*
%TO.C,C_Bulk1*%
X147512500Y-94700000D03*
X152587500Y-94700000D03*
%TD*%
D12*
%TO.C,J_SPK1*%
X172824999Y-105115000D03*
X172824999Y-101614998D03*
X179825000Y-105115000D03*
X179825000Y-101614998D03*
%TD*%
D13*
%TO.C,C_HF2*%
X155750000Y-95312500D03*
X155750000Y-93587500D03*
%TD*%
D14*
%TO.C,U3*%
X156715000Y-101200000D03*
X156715000Y-101700000D03*
X156715000Y-102200000D03*
X156715000Y-102700000D03*
D15*
X157400000Y-103385000D03*
X157900000Y-103385000D03*
X158400000Y-103385000D03*
X158900000Y-103385000D03*
D14*
X159585000Y-102700000D03*
X159585000Y-102200000D03*
X159585000Y-101700000D03*
X159585000Y-101200000D03*
D15*
X158900000Y-100515000D03*
X158400000Y-100515000D03*
X157900000Y-100515000D03*
X157400000Y-100515000D03*
D16*
X158150000Y-101950000D03*
%TD*%
D17*
%TO.C,R_GPIO2*%
X170887500Y-91150000D03*
X172712500Y-91150000D03*
%TD*%
D18*
%TO.C,S_BOOT1*%
X158800000Y-115500000D03*
X158800000Y-121500000D03*
X155100000Y-115500000D03*
X155100000Y-121500000D03*
%TD*%
D13*
%TO.C,C_SD1*%
X174175000Y-80312500D03*
X174175000Y-78587500D03*
%TD*%
D19*
%TO.C,R_CC1*%
X176200000Y-112562500D03*
X176200000Y-110737500D03*
%TD*%
D20*
%TO.C,J3*%
X177791000Y-85900001D03*
X180381000Y-85900001D03*
D21*
X178230999Y-75499999D03*
D22*
X179381000Y-75275001D03*
D23*
X180531000Y-75475000D03*
D24*
X176741000Y-77124999D03*
X176741000Y-78225000D03*
X176741000Y-79325000D03*
X176741000Y-80425000D03*
X176741000Y-81525001D03*
X176741000Y-82625001D03*
X176741000Y-83725002D03*
X176741000Y-84824999D03*
%TD*%
D13*
%TO.C,C_VDD1*%
X152500000Y-74062500D03*
X152500000Y-72337500D03*
%TD*%
D25*
%TO.C,J1*%
X176530000Y-115195000D03*
D26*
X178550000Y-115195000D03*
D27*
X179780000Y-115195000D03*
D25*
X177530000Y-115195000D03*
D26*
X175510000Y-115195000D03*
D27*
X174280000Y-115195000D03*
D28*
X172710000Y-115200000D03*
X181350000Y-115200000D03*
X172710000Y-119000000D03*
X181350000Y-119000000D03*
%TD*%
D18*
%TO.C,S_RST1*%
X161800000Y-121400000D03*
X161800000Y-115400000D03*
X165500000Y-121400000D03*
X165500000Y-115400000D03*
%TD*%
D17*
%TO.C,R_FBT1*%
X157487500Y-97050000D03*
X159312500Y-97050000D03*
%TD*%
D29*
%TO.C,U2*%
X154800000Y-71940000D03*
X154800000Y-73210000D03*
X154800000Y-74480000D03*
X154800000Y-75750000D03*
X154800000Y-77020000D03*
X154800000Y-78290000D03*
X154800000Y-79560000D03*
X154800000Y-80830000D03*
X154800000Y-82100000D03*
X154800000Y-83370000D03*
X154800000Y-84640000D03*
X154800000Y-85910000D03*
X154800000Y-87180000D03*
X154800000Y-88450000D03*
D30*
X157835000Y-89700000D03*
X159105000Y-89700000D03*
X160375000Y-89700000D03*
X161645000Y-89700000D03*
X162915000Y-89700000D03*
X164185000Y-89700000D03*
X165455000Y-89700000D03*
X166725000Y-89700000D03*
X167995000Y-89700000D03*
X169265000Y-89700000D03*
D29*
X172300000Y-88450000D03*
X172300000Y-87180000D03*
X172300000Y-85910000D03*
X172300000Y-84640000D03*
X172300000Y-83370000D03*
X172300000Y-82100000D03*
X172300000Y-80830000D03*
X172300000Y-79560000D03*
X172300000Y-78290000D03*
X172300000Y-77020000D03*
X172300000Y-75750000D03*
X172300000Y-74480000D03*
X172300000Y-73210000D03*
X172300000Y-71940000D03*
D31*
X160650000Y-78260000D03*
X160650000Y-79660000D03*
X160650000Y-81060000D03*
X162050000Y-81060000D03*
X163450000Y-81060000D03*
X163450000Y-79660000D03*
X163450000Y-78260000D03*
X162050000Y-78260000D03*
X162050000Y-79660000D03*
%TD*%
D17*
%TO.C,R_EN1*%
X150687500Y-75675000D03*
X152512500Y-75675000D03*
%TD*%
D32*
%TO.C,J2*%
X175225000Y-96975000D03*
D12*
X175225000Y-94435000D03*
X175225000Y-91895000D03*
X175225000Y-89355000D03*
%TD*%
D33*
%TO.C,R_FBB1*%
X161850000Y-97587500D03*
X161850000Y-99412500D03*
%TD*%
D34*
%TO.C,REF\u002A\u002A*%
X99350000Y-73000000D03*
X99350000Y-113000000D03*
X139350000Y-73000000D03*
X139350000Y-114000000D03*
%TD*%
D13*
%TO.C,C_HF1*%
X157500000Y-95312500D03*
X157500000Y-93587500D03*
%TD*%
D35*
%TO.C,C_OUT1*%
X168912500Y-98250000D03*
X167187500Y-98250000D03*
%TD*%
D19*
%TO.C,R_CC2*%
X177800000Y-112562500D03*
X177800000Y-110737500D03*
%TD*%
D36*
%TO.C,L1*%
X166965000Y-95000000D03*
X169335000Y-95000000D03*
%TD*%
D33*
%TO.C,R_TOUCH1*%
X148350000Y-114187500D03*
X148350000Y-116012500D03*
%TD*%
%TO.C,R_BOOT1*%
X158750000Y-112287500D03*
X158750000Y-114112500D03*
%TD*%
D19*
%TO.C,R_RXD1*%
X171825000Y-95262500D03*
X171825000Y-93437500D03*
%TD*%
D37*
%TO.C,J_TOUCH1*%
X148350000Y-119700000D03*
%TD*%
D38*
%TO.C,U1*%
X164317500Y-95850000D03*
X164317500Y-94900000D03*
X164317500Y-93950000D03*
X161807500Y-93950000D03*
X161807500Y-95850000D03*
%TD*%
D13*
%TO.C,C_VDD2*%
X150850000Y-74062500D03*
X150850000Y-72337500D03*
%TD*%
D39*
%TO.C,C_EN1*%
X149225000Y-75787500D03*
X149225000Y-77512500D03*
%TD*%
M02*
